<svg width="33" height="33" viewBox="0 0 33 33" fill="none" xmlns="http://www.w3.org/2000/svg">
<path d="M16.5 31.625C8.85912 29.9269 2.75 22.7178 2.75 15.125V6.875L16.5 1.375L30.25 6.875V15.125C30.25 22.7205 24.1409 29.9269 16.5 31.625ZM5.5 8.25V15.125C5.57858 18.3042 6.69675 21.37 8.68337 23.8533C10.67 26.3366 13.4156 28.1005 16.5 28.875C19.5844 28.1005 22.33 26.3366 24.3166 23.8533C26.3033 21.37 27.4214 18.3042 27.5 15.125V8.25L16.5 4.125L5.5 8.25Z" fill="#2C2C2C"/>
<path d="M16.5 15.125C18.3985 15.125 19.9375 13.586 19.9375 11.6875C19.9375 9.78902 18.3985 8.25 16.5 8.25C14.6015 8.25 13.0625 9.78902 13.0625 11.6875C13.0625 13.586 14.6015 15.125 16.5 15.125Z" fill="#2C2C2C"/>
<path d="M9.625 20.625C10.3025 21.8602 11.2962 22.8931 12.5042 23.618C13.7123 24.3428 15.0913 24.7335 16.5 24.75C17.9087 24.7335 19.2877 24.3428 20.4958 23.618C21.7038 22.8931 22.6975 21.8602 23.375 20.625C23.3406 18.018 18.7797 16.5 16.5 16.5C14.2079 16.5 9.65938 18.018 9.625 20.625Z" fill="#2C2C2C"/>
</svg>
