<svg width="35" height="35" viewBox="0 0 35 35" fill="none" xmlns="http://www.w3.org/2000/svg">
<path d="M17.2542 33.0699C9.26423 31.2942 2.87598 23.7557 2.87598 15.8161V7.18912L17.2542 1.43782L31.6325 7.18912V15.8161C31.6325 23.7586 25.2442 31.2942 17.2542 33.0699ZM5.75162 8.62694V15.8161C5.83379 19.1405 7.00305 22.3464 9.08044 24.9432C11.1578 27.5399 14.0289 29.3844 17.2542 30.1943C20.4795 29.3844 23.3506 27.5399 25.428 24.9432C27.5054 22.3464 28.6746 19.1405 28.7568 15.8161V8.62694L17.2542 4.31347L5.75162 8.62694Z" fill="#575835"/>
<path d="M17.2537 15.8161C19.239 15.8161 20.8483 14.2067 20.8483 12.2215C20.8483 10.2363 19.239 8.62694 17.2537 8.62694C15.2685 8.62694 13.6592 10.2363 13.6592 12.2215C13.6592 14.2067 15.2685 15.8161 17.2537 15.8161Z" fill="#575835"/>
<path d="M10.0645 21.5674C10.7729 22.859 11.812 23.9391 13.0752 24.6971C14.3385 25.455 15.7805 25.8636 17.2536 25.8808C18.7267 25.8636 20.1687 25.455 21.4319 24.6971C22.6952 23.9391 23.7342 22.859 24.4427 21.5674C24.4067 18.8412 19.6375 17.2539 17.2536 17.2539C14.8567 17.2539 10.1004 18.8412 10.0645 21.5674Z" fill="#575835"/>
</svg>
