<svg width="1600" height="459" viewBox="0 0 1600 459" fill="none" xmlns="http://www.w3.org/2000/svg">
<path d="M0 0H1600V429C1600 445.569 1586.57 459 1570 459H30C13.4315 459 0 445.569 0 429V0Z" fill="#B4D7DD"/>
<path d="M-148 58.0463C-91.5 20.3796 33.6 -43.6537 82 1.5463C142.5 58.0463 -180 270.046 -49 243.046C82 216.046 102 125.046 239.5 143.546C377 162.046 158.5 261.046 158.5 331.046C158.5 387.046 292.167 376.713 359 364.546" stroke="#85BFC9" stroke-width="62" stroke-linecap="round"/>
<path d="M1698 58.0463C1641.5 20.3796 1516.4 -43.6537 1468 1.5463C1407.5 58.0463 1730 270.046 1599 243.046C1468 216.046 1448 125.046 1310.5 143.546C1173 162.046 1391.5 261.046 1391.5 331.046C1391.5 387.046 1257.83 376.713 1191 364.546" stroke="#85BFC9" stroke-width="62" stroke-linecap="round"/>
<path d="M457.81 193.164H468.886V233.492H490.186V244H457.81V193.164ZM516.723 240.876H516.013C514.877 242.107 513.575 243.124 512.108 243.929C510.688 244.734 508.842 245.136 506.57 245.136C504.819 245.136 503.162 244.852 501.6 244.284C500.085 243.716 498.736 242.911 497.553 241.87C496.417 240.829 495.518 239.574 494.855 238.107C494.192 236.64 493.861 235.007 493.861 233.208C493.861 231.457 494.216 229.871 494.926 228.451C495.636 226.984 496.606 225.729 497.837 224.688C499.068 223.647 500.511 222.842 502.168 222.274C503.872 221.706 505.718 221.422 507.706 221.422C509.836 221.422 511.587 221.564 512.96 221.848C514.38 222.132 515.634 222.463 516.723 222.842V221.919C516.723 220.404 516.084 219.126 514.806 218.085C513.575 216.996 511.895 216.452 509.765 216.452C506.688 216.452 504.038 217.706 501.813 220.215L494.571 215.103C496.559 212.736 498.855 210.985 501.458 209.849C504.109 208.666 507.02 208.074 510.191 208.074C515.871 208.074 520.155 209.352 523.042 211.908C525.929 214.417 527.373 218.251 527.373 223.41V244H516.723V240.876ZM516.723 230.297C515.634 229.871 514.546 229.54 513.457 229.303C512.416 229.066 511.327 228.948 510.191 228.948C508.298 228.948 506.878 229.35 505.931 230.155C504.984 230.912 504.511 231.906 504.511 233.137C504.511 234.368 504.961 235.362 505.86 236.119C506.759 236.829 507.943 237.184 509.41 237.184C510.593 237.184 511.635 236.995 512.534 236.616C513.481 236.19 514.262 235.646 514.877 234.983C515.492 234.32 515.942 233.587 516.226 232.782C516.557 231.93 516.723 231.102 516.723 230.297ZM534.747 193.164H545.397V219.008H546.107L556.047 209.21H569.04V209.92L556.473 221.99L570.318 243.29V244H557.822L548.947 229.303L545.397 232.711V244H534.747V193.164ZM597.989 239.598H597.279C594.912 243.29 591.362 245.136 586.629 245.136C582.274 245.136 579.032 243.74 576.902 240.947C574.772 238.154 573.707 234.486 573.707 229.942V209.21H584.357V228.735C584.357 230.628 584.806 232.19 585.706 233.421C586.605 234.604 588.001 235.196 589.895 235.196C592.309 235.196 594.131 234.273 595.362 232.427C596.64 230.581 597.279 228.167 597.279 225.185V209.21H607.929V244H597.989V239.598ZM615.87 193.164H626.52V219.008H627.23L637.17 209.21H650.163V209.92L637.596 221.99L651.441 243.29V244H638.945L630.07 229.303L626.52 232.711V244H615.87V193.164ZM675.294 240.876H674.584C673.448 242.107 672.147 243.124 670.679 243.929C669.259 244.734 667.413 245.136 665.141 245.136C663.39 245.136 661.733 244.852 660.171 244.284C658.657 243.716 657.308 242.911 656.124 241.87C654.988 240.829 654.089 239.574 653.426 238.107C652.764 236.64 652.432 235.007 652.432 233.208C652.432 231.457 652.787 229.871 653.497 228.451C654.207 226.984 655.178 225.729 656.408 224.688C657.639 223.647 659.083 222.842 660.739 222.274C662.443 221.706 664.289 221.422 666.277 221.422C668.407 221.422 670.159 221.564 671.531 221.848C672.951 222.132 674.206 222.463 675.294 222.842V221.919C675.294 220.404 674.655 219.126 673.377 218.085C672.147 216.996 670.466 216.452 668.336 216.452C665.26 216.452 662.609 217.706 660.384 220.215L653.142 215.103C655.13 212.736 657.426 210.985 660.029 209.849C662.68 208.666 665.591 208.074 668.762 208.074C674.442 208.074 678.726 209.352 681.613 211.908C684.501 214.417 685.944 218.251 685.944 223.41V244H675.294V240.876ZM675.294 230.297C674.206 229.871 673.117 229.54 672.028 229.303C670.987 229.066 669.898 228.948 668.762 228.948C666.869 228.948 665.449 229.35 664.502 230.155C663.556 230.912 663.082 231.906 663.082 233.137C663.082 234.368 663.532 235.362 664.431 236.119C665.331 236.829 666.514 237.184 667.981 237.184C669.165 237.184 670.206 236.995 671.105 236.616C672.052 236.19 672.833 235.646 673.448 234.983C674.064 234.32 674.513 233.587 674.797 232.782C675.129 231.93 675.294 231.102 675.294 230.297ZM703.258 213.612H703.968C706.334 209.92 709.884 208.074 714.618 208.074C718.972 208.074 722.215 209.47 724.345 212.263C726.475 215.056 727.54 218.724 727.54 223.268V244H716.89V224.475C716.89 222.582 716.44 221.043 715.541 219.86C714.641 218.629 713.245 218.014 711.352 218.014C708.938 218.014 707.092 218.937 705.814 220.783C704.583 222.629 703.968 225.043 703.968 228.025V244H693.318V209.21H703.258V213.612ZM751.933 244V193.164H770.109C772.713 193.164 775.103 193.566 777.28 194.371C779.505 195.176 781.422 196.312 783.031 197.779C784.641 199.199 785.895 200.927 786.794 202.962C787.694 204.997 788.143 207.246 788.143 209.707C788.143 212.168 787.694 214.417 786.794 216.452C785.895 218.487 784.641 220.239 783.031 221.706C781.422 223.126 779.505 224.238 777.28 225.043C775.103 225.848 772.713 226.25 770.109 226.25H763.009V244H751.933ZM770.464 215.742C772.784 215.742 774.511 215.174 775.647 214.038C776.783 212.902 777.351 211.458 777.351 209.707C777.351 207.956 776.783 206.512 775.647 205.376C774.511 204.24 772.784 203.672 770.464 203.672H763.009V215.742H770.464ZM825.013 235.551C823.309 238.533 821.06 240.876 818.268 242.58C815.522 244.284 812.185 245.136 808.257 245.136C805.559 245.136 803.05 244.686 800.731 243.787C798.459 242.84 796.471 241.539 794.767 239.882C793.063 238.225 791.737 236.285 790.791 234.06C789.844 231.788 789.371 229.303 789.371 226.605C789.371 224.096 789.844 221.73 790.791 219.505C791.737 217.233 793.039 215.269 794.696 213.612C796.4 211.908 798.364 210.559 800.589 209.565C802.861 208.571 805.322 208.074 807.973 208.074C810.86 208.074 813.392 208.547 815.57 209.494C817.794 210.441 819.64 211.742 821.108 213.399C822.575 215.008 823.687 216.925 824.445 219.15C825.202 221.327 825.581 223.67 825.581 226.179C825.581 226.558 825.557 226.936 825.51 227.315C825.51 227.694 825.486 228.025 825.439 228.309C825.391 228.64 825.368 228.948 825.368 229.232H799.737C800.257 231.504 801.322 233.161 802.932 234.202C804.541 235.243 806.34 235.764 808.328 235.764C810.316 235.764 811.949 235.338 813.227 234.486C814.552 233.634 815.593 232.545 816.351 231.22L825.013 235.551ZM815.57 221.99C815.475 221.422 815.238 220.807 814.86 220.144C814.528 219.481 814.031 218.89 813.369 218.369C812.753 217.801 811.972 217.351 811.026 217.02C810.126 216.641 809.109 216.452 807.973 216.452C806.316 216.452 804.778 216.925 803.358 217.872C801.938 218.819 800.896 220.191 800.234 221.99H815.57ZM841.514 213.612H842.224C844.59 209.92 848.14 208.074 852.874 208.074C857.228 208.074 860.471 209.47 862.601 212.263C864.731 215.056 865.796 218.724 865.796 223.268V244H855.146V224.475C855.146 222.582 854.696 221.043 853.797 219.86C852.897 218.629 851.501 218.014 849.608 218.014C847.194 218.014 845.348 218.937 844.07 220.783C842.839 222.629 842.224 225.043 842.224 228.025V244H831.574V209.21H841.514V213.612ZM893.98 240.876H893.27C892.134 242.107 890.832 243.124 889.365 243.929C887.945 244.734 886.099 245.136 883.827 245.136C882.076 245.136 880.419 244.852 878.857 244.284C877.342 243.716 875.993 242.911 874.81 241.87C873.674 240.829 872.775 239.574 872.112 238.107C871.449 236.64 871.118 235.007 871.118 233.208C871.118 231.457 871.473 229.871 872.183 228.451C872.893 226.984 873.863 225.729 875.094 224.688C876.325 223.647 877.768 222.842 879.425 222.274C881.129 221.706 882.975 221.422 884.963 221.422C887.093 221.422 888.844 221.564 890.217 221.848C891.637 222.132 892.891 222.463 893.98 222.842V221.919C893.98 220.404 893.341 219.126 892.063 218.085C890.832 216.996 889.152 216.452 887.022 216.452C883.945 216.452 881.295 217.706 879.07 220.215L871.828 215.103C873.816 212.736 876.112 210.985 878.715 209.849C881.366 208.666 884.277 208.074 887.448 208.074C893.128 208.074 897.412 209.352 900.299 211.908C903.186 214.417 904.63 218.251 904.63 223.41V244H893.98V240.876ZM893.98 230.297C892.891 229.871 891.803 229.54 890.714 229.303C889.673 229.066 888.584 228.948 887.448 228.948C885.555 228.948 884.135 229.35 883.188 230.155C882.241 230.912 881.768 231.906 881.768 233.137C881.768 234.368 882.218 235.362 883.117 236.119C884.016 236.829 885.2 237.184 886.667 237.184C887.85 237.184 888.892 236.995 889.791 236.616C890.738 236.19 891.519 235.646 892.134 234.983C892.749 234.32 893.199 233.587 893.483 232.782C893.814 231.93 893.98 231.102 893.98 230.297ZM907.618 209.21H919.83L924.587 228.806H925.297L931.474 209.21H942.408L948.514 228.806H949.224L953.91 209.21H965.98L954.904 244H943.26L937.083 224.404H936.373L930.267 244H918.694L907.618 209.21ZM990.426 240.876H989.716C988.58 242.107 987.279 243.124 985.811 243.929C984.391 244.734 982.545 245.136 980.273 245.136C978.522 245.136 976.865 244.852 975.303 244.284C973.789 243.716 972.44 242.911 971.256 241.87C970.12 240.829 969.221 239.574 968.558 238.107C967.896 236.64 967.564 235.007 967.564 233.208C967.564 231.457 967.919 229.871 968.629 228.451C969.339 226.984 970.31 225.729 971.54 224.688C972.771 223.647 974.215 222.842 975.871 222.274C977.575 221.706 979.421 221.422 981.409 221.422C983.539 221.422 985.291 221.564 986.663 221.848C988.083 222.132 989.338 222.463 990.426 222.842V221.919C990.426 220.404 989.787 219.126 988.509 218.085C987.279 216.996 985.598 216.452 983.468 216.452C980.392 216.452 977.741 217.706 975.516 220.215L968.274 215.103C970.262 212.736 972.558 210.985 975.161 209.849C977.812 208.666 980.723 208.074 983.894 208.074C989.574 208.074 993.858 209.352 996.745 211.908C999.633 214.417 1001.08 218.251 1001.08 223.41V244H990.426V240.876ZM990.426 230.297C989.338 229.871 988.249 229.54 987.16 229.303C986.119 229.066 985.03 228.948 983.894 228.948C982.001 228.948 980.581 229.35 979.634 230.155C978.688 230.912 978.214 231.906 978.214 233.137C978.214 234.368 978.664 235.362 979.563 236.119C980.463 236.829 981.646 237.184 983.113 237.184C984.297 237.184 985.338 236.995 986.237 236.616C987.184 236.19 987.965 235.646 988.58 234.983C989.196 234.32 989.645 233.587 989.929 232.782C990.261 231.93 990.426 231.102 990.426 230.297ZM1008.45 209.21H1018.39V213.612H1019.1C1020.05 212.097 1021.4 210.819 1023.15 209.778C1024.9 208.737 1026.84 208.216 1028.97 208.216C1030.25 208.216 1031.36 208.382 1032.31 208.713C1033.25 208.997 1034.03 209.328 1034.65 209.707L1031.88 219.079C1031.26 218.748 1030.6 218.487 1029.89 218.298C1029.23 218.109 1028.35 218.014 1027.26 218.014C1024.61 218.014 1022.58 218.937 1021.16 220.783C1019.79 222.629 1019.1 225.043 1019.1 228.025V244H1008.45V209.21ZM1058.38 240.876H1057.67C1056.53 242.107 1055.23 243.124 1053.76 243.929C1052.34 244.734 1050.49 245.136 1048.22 245.136C1046.47 245.136 1044.81 244.852 1043.25 244.284C1041.74 243.716 1040.39 242.911 1039.21 241.87C1038.07 240.829 1037.17 239.574 1036.51 238.107C1035.84 236.64 1035.51 235.007 1035.51 233.208C1035.51 231.457 1035.87 229.871 1036.58 228.451C1037.29 226.984 1038.26 225.729 1039.49 224.688C1040.72 223.647 1042.16 222.842 1043.82 222.274C1045.52 221.706 1047.37 221.422 1049.36 221.422C1051.49 221.422 1053.24 221.564 1054.61 221.848C1056.03 222.132 1057.29 222.463 1058.38 222.842V221.919C1058.38 220.404 1057.74 219.126 1056.46 218.085C1055.23 216.996 1053.55 216.452 1051.42 216.452C1048.34 216.452 1045.69 217.706 1043.47 220.215L1036.22 215.103C1038.21 212.736 1040.51 210.985 1043.11 209.849C1045.76 208.666 1048.67 208.074 1051.84 208.074C1057.52 208.074 1061.81 209.352 1064.69 211.908C1067.58 214.417 1069.03 218.251 1069.03 223.41V244H1058.38V240.876ZM1058.38 230.297C1057.29 229.871 1056.2 229.54 1055.11 229.303C1054.07 229.066 1052.98 228.948 1051.84 228.948C1049.95 228.948 1048.53 229.35 1047.58 230.155C1046.64 230.912 1046.16 231.906 1046.16 233.137C1046.16 234.368 1046.61 235.362 1047.51 236.119C1048.41 236.829 1049.6 237.184 1051.06 237.184C1052.25 237.184 1053.29 236.995 1054.19 236.616C1055.13 236.19 1055.91 235.646 1056.53 234.983C1057.14 234.32 1057.59 233.587 1057.88 232.782C1058.21 231.93 1058.38 231.102 1058.38 230.297ZM1086.34 213.612H1087.05C1089.42 209.92 1092.97 208.074 1097.7 208.074C1102.05 208.074 1105.3 209.47 1107.43 212.263C1109.56 215.056 1110.62 218.724 1110.62 223.268V244H1099.97V224.475C1099.97 222.582 1099.52 221.043 1098.62 219.86C1097.72 218.629 1096.33 218.014 1094.43 218.014C1092.02 218.014 1090.17 218.937 1088.89 220.783C1087.66 222.629 1087.05 225.043 1087.05 228.025V244H1076.4V209.21H1086.34V213.612ZM436.247 271.164H447.181L461.665 296.014H462.375L476.859 271.164H487.793V322H476.859V299.493L477.569 290.973H476.859L465.286 311.208H458.754L447.181 290.973H446.471L447.181 299.493V322H436.247V271.164ZM513.645 286.074C516.343 286.074 518.828 286.547 521.1 287.494C523.419 288.393 525.407 289.671 527.064 291.328C528.768 292.937 530.07 294.878 530.969 297.15C531.916 299.422 532.389 301.907 532.389 304.605C532.389 307.303 531.916 309.788 530.969 312.06C530.07 314.332 528.768 316.296 527.064 317.953C525.407 319.562 523.419 320.84 521.1 321.787C518.828 322.686 516.343 323.136 513.645 323.136C510.947 323.136 508.438 322.686 506.119 321.787C503.847 320.84 501.859 319.562 500.155 317.953C498.498 316.296 497.197 314.332 496.25 312.06C495.351 309.788 494.901 307.303 494.901 304.605C494.901 301.907 495.351 299.422 496.25 297.15C497.197 294.878 498.498 292.937 500.155 291.328C501.859 289.671 503.847 288.393 506.119 287.494C508.438 286.547 510.947 286.074 513.645 286.074ZM513.645 313.196C514.734 313.196 515.751 313.007 516.698 312.628C517.692 312.202 518.568 311.634 519.325 310.924C520.082 310.167 520.674 309.267 521.1 308.226C521.526 307.137 521.739 305.93 521.739 304.605C521.739 303.28 521.526 302.096 521.1 301.055C520.674 300.014 520.082 299.114 519.325 298.357C518.568 297.6 517.692 297.032 516.698 296.653C515.751 296.227 514.734 296.014 513.645 296.014C512.556 296.014 511.515 296.227 510.521 296.653C509.574 297.032 508.722 297.6 507.965 298.357C507.208 299.114 506.616 300.014 506.19 301.055C505.764 302.096 505.551 303.28 505.551 304.605C505.551 305.93 505.764 307.137 506.19 308.226C506.616 309.267 507.208 310.167 507.965 310.924C508.722 311.634 509.574 312.202 510.521 312.628C511.515 313.007 512.556 313.196 513.645 313.196ZM547.945 322H538.005V271.164H548.655V286.074L547.945 291.044H548.655C549.46 289.671 550.691 288.512 552.347 287.565C554.051 286.571 556.181 286.074 558.737 286.074C560.962 286.074 563.092 286.524 565.127 287.423C567.163 288.322 568.938 289.6 570.452 291.257C572.014 292.866 573.245 294.807 574.144 297.079C575.044 299.351 575.493 301.86 575.493 304.605C575.493 307.35 575.044 309.859 574.144 312.131C573.245 314.403 572.014 316.367 570.452 318.024C568.938 319.633 567.163 320.888 565.127 321.787C563.092 322.686 560.962 323.136 558.737 323.136C556.181 323.136 554.051 322.663 552.347 321.716C550.691 320.722 549.46 319.539 548.655 318.166H547.945V322ZM556.394 313.196C557.53 313.196 558.595 313.007 559.589 312.628C560.631 312.202 561.53 311.634 562.287 310.924C563.092 310.167 563.707 309.267 564.133 308.226C564.607 307.137 564.843 305.93 564.843 304.605C564.843 303.28 564.607 302.096 564.133 301.055C563.707 300.014 563.092 299.114 562.287 298.357C561.53 297.6 560.631 297.032 559.589 296.653C558.595 296.227 557.53 296.014 556.394 296.014C555.258 296.014 554.17 296.227 553.128 296.653C552.134 297.032 551.235 297.6 550.43 298.357C549.673 299.114 549.058 300.014 548.584 301.055C548.158 302.096 547.945 303.28 547.945 304.605C547.945 305.93 548.158 307.137 548.584 308.226C549.058 309.267 549.673 310.167 550.43 310.924C551.235 311.634 552.134 312.202 553.128 312.628C554.17 313.007 555.258 313.196 556.394 313.196ZM587.025 283.376C586.079 283.376 585.203 283.21 584.398 282.879C583.594 282.5 582.884 282.027 582.268 281.459C581.7 280.844 581.227 280.134 580.848 279.329C580.517 278.524 580.351 277.649 580.351 276.702C580.351 275.803 580.517 274.951 580.848 274.146C581.227 273.294 581.7 272.584 582.268 272.016C582.884 271.401 583.594 270.927 584.398 270.596C585.203 270.217 586.079 270.028 587.025 270.028C587.925 270.028 588.777 270.217 589.581 270.596C590.433 270.927 591.143 271.401 591.711 272.016C592.327 272.584 592.8 273.294 593.131 274.146C593.51 274.951 593.699 275.803 593.699 276.702C593.699 277.649 593.51 278.524 593.131 279.329C592.8 280.134 592.327 280.844 591.711 281.459C591.143 282.027 590.433 282.5 589.581 282.879C588.777 283.21 587.925 283.376 587.025 283.376ZM581.7 322V287.21H592.35V322H581.7ZM600.893 322V271.164H611.543V322H600.893ZM650.179 323.136C645.446 323.136 641.352 321.882 637.896 319.373C634.488 316.817 632.074 313.172 630.654 308.439L641.091 304.321C641.707 306.735 642.724 308.723 644.144 310.285C645.564 311.847 647.576 312.628 650.179 312.628C651.031 312.628 651.836 312.533 652.593 312.344C653.398 312.155 654.084 311.871 654.652 311.492C655.268 311.066 655.765 310.545 656.143 309.93C656.522 309.315 656.711 308.605 656.711 307.8C656.711 306.995 656.546 306.262 656.214 305.599C655.93 304.889 655.433 304.25 654.723 303.682C654.013 303.067 653.067 302.475 651.883 301.907C650.7 301.292 649.209 300.653 647.41 299.99L644.286 298.854C642.961 298.381 641.588 297.742 640.168 296.937C638.796 296.085 637.541 295.067 636.405 293.884C635.269 292.701 634.346 291.352 633.636 289.837C632.926 288.275 632.571 286.547 632.571 284.654C632.571 282.619 632.974 280.702 633.778 278.903C634.583 277.104 635.719 275.566 637.186 274.288C638.654 272.963 640.429 271.921 642.511 271.164C644.594 270.407 646.89 270.028 649.398 270.028C652.049 270.028 654.321 270.383 656.214 271.093C658.108 271.756 659.717 272.631 661.042 273.72C662.368 274.761 663.409 275.945 664.166 277.27C664.971 278.595 665.586 279.873 666.012 281.104L656.427 285.151C655.907 283.636 655.078 282.429 653.942 281.53C652.806 280.583 651.339 280.11 649.54 280.11C647.647 280.11 646.132 280.512 644.996 281.317C643.908 282.074 643.363 283.068 643.363 284.299C643.363 285.577 643.931 286.713 645.067 287.707C646.203 288.701 648.215 289.695 651.102 290.689L654.226 291.754C658.534 293.221 661.871 295.186 664.237 297.647C666.604 300.108 667.787 303.422 667.787 307.587C667.787 310.238 667.243 312.533 666.154 314.474C665.113 316.415 663.74 318.024 662.036 319.302C660.38 320.58 658.486 321.527 656.356 322.142C654.274 322.805 652.215 323.136 650.179 323.136ZM708.182 313.551C706.478 316.533 704.229 318.876 701.437 320.58C698.691 322.284 695.354 323.136 691.426 323.136C688.728 323.136 686.219 322.686 683.9 321.787C681.628 320.84 679.64 319.539 677.936 317.882C676.232 316.225 674.906 314.285 673.96 312.06C673.013 309.788 672.54 307.303 672.54 304.605C672.54 302.096 673.013 299.73 673.96 297.505C674.906 295.233 676.208 293.269 677.865 291.612C679.569 289.908 681.533 288.559 683.758 287.565C686.03 286.571 688.491 286.074 691.142 286.074C694.029 286.074 696.561 286.547 698.739 287.494C700.963 288.441 702.809 289.742 704.277 291.399C705.744 293.008 706.856 294.925 707.614 297.15C708.371 299.327 708.75 301.67 708.75 304.179C708.75 304.558 708.726 304.936 708.679 305.315C708.679 305.694 708.655 306.025 708.608 306.309C708.56 306.64 708.537 306.948 708.537 307.232H682.906C683.426 309.504 684.491 311.161 686.101 312.202C687.71 313.243 689.509 313.764 691.497 313.764C693.485 313.764 695.118 313.338 696.396 312.486C697.721 311.634 698.762 310.545 699.52 309.22L708.182 313.551ZM698.739 299.99C698.644 299.422 698.407 298.807 698.029 298.144C697.697 297.481 697.2 296.89 696.538 296.369C695.922 295.801 695.141 295.351 694.195 295.02C693.295 294.641 692.278 294.452 691.142 294.452C689.485 294.452 687.947 294.925 686.527 295.872C685.107 296.819 684.065 298.191 683.403 299.99H698.739ZM714.743 271.164H725.393V297.008H726.103L736.043 287.21H749.036V287.92L736.469 299.99L750.314 321.29V322H737.818L728.943 307.303L725.393 310.711V322H714.743V271.164ZM774.167 318.876H773.457C772.321 320.107 771.02 321.124 769.552 321.929C768.132 322.734 766.286 323.136 764.014 323.136C762.263 323.136 760.606 322.852 759.044 322.284C757.53 321.716 756.181 320.911 754.997 319.87C753.861 318.829 752.962 317.574 752.299 316.107C751.637 314.64 751.305 313.007 751.305 311.208C751.305 309.457 751.66 307.871 752.37 306.451C753.08 304.984 754.051 303.729 755.281 302.688C756.512 301.647 757.956 300.842 759.612 300.274C761.316 299.706 763.162 299.422 765.15 299.422C767.28 299.422 769.032 299.564 770.404 299.848C771.824 300.132 773.079 300.463 774.167 300.842V299.919C774.167 298.404 773.528 297.126 772.25 296.085C771.02 294.996 769.339 294.452 767.209 294.452C764.133 294.452 761.482 295.706 759.257 298.215L752.015 293.103C754.003 290.736 756.299 288.985 758.902 287.849C761.553 286.666 764.464 286.074 767.635 286.074C773.315 286.074 777.599 287.352 780.486 289.908C783.374 292.417 784.817 296.251 784.817 301.41V322H774.167V318.876ZM774.167 308.297C773.079 307.871 771.99 307.54 770.901 307.303C769.86 307.066 768.771 306.948 767.635 306.948C765.742 306.948 764.322 307.35 763.375 308.155C762.429 308.912 761.955 309.906 761.955 311.137C761.955 312.368 762.405 313.362 763.304 314.119C764.204 314.829 765.387 315.184 766.854 315.184C768.038 315.184 769.079 314.995 769.978 314.616C770.925 314.19 771.706 313.646 772.321 312.983C772.937 312.32 773.386 311.587 773.67 310.782C774.002 309.93 774.167 309.102 774.167 308.297ZM792.191 287.21H802.131V291.612H802.841C803.788 290.097 805.137 288.819 806.888 287.778C808.639 286.737 810.58 286.216 812.71 286.216C813.988 286.216 815.1 286.382 816.047 286.713C816.994 286.997 817.775 287.328 818.39 287.707L815.621 297.079C815.006 296.748 814.343 296.487 813.633 296.298C812.97 296.109 812.095 296.014 811.006 296.014C808.355 296.014 806.32 296.937 804.9 298.783C803.527 300.629 802.841 303.043 802.841 306.025V322H792.191V287.21ZM842.117 318.876H841.407C840.271 320.107 838.969 321.124 837.502 321.929C836.082 322.734 834.236 323.136 831.964 323.136C830.212 323.136 828.556 322.852 826.994 322.284C825.479 321.716 824.13 320.911 822.947 319.87C821.811 318.829 820.911 317.574 820.249 316.107C819.586 314.64 819.255 313.007 819.255 311.208C819.255 309.457 819.61 307.871 820.32 306.451C821.03 304.984 822 303.729 823.231 302.688C824.461 301.647 825.905 300.842 827.562 300.274C829.266 299.706 831.112 299.422 833.1 299.422C835.23 299.422 836.981 299.564 838.354 299.848C839.774 300.132 841.028 300.463 842.117 300.842V299.919C842.117 298.404 841.478 297.126 840.2 296.085C838.969 294.996 837.289 294.452 835.159 294.452C832.082 294.452 829.431 295.706 827.207 298.215L819.965 293.103C821.953 290.736 824.248 288.985 826.852 287.849C829.502 286.666 832.413 286.074 835.585 286.074C841.265 286.074 845.548 287.352 848.436 289.908C851.323 292.417 852.767 296.251 852.767 301.41V322H842.117V318.876ZM842.117 308.297C841.028 307.871 839.939 307.54 838.851 307.303C837.809 307.066 836.721 306.948 835.585 306.948C833.691 306.948 832.271 307.35 831.325 308.155C830.378 308.912 829.905 309.906 829.905 311.137C829.905 312.368 830.354 313.362 831.254 314.119C832.153 314.829 833.336 315.184 834.804 315.184C835.987 315.184 837.028 314.995 837.928 314.616C838.874 314.19 839.655 313.646 840.271 312.983C840.886 312.32 841.336 311.587 841.62 310.782C841.951 309.93 842.117 309.102 842.117 308.297ZM870.08 291.612H870.79C873.157 287.92 876.707 286.074 881.44 286.074C885.795 286.074 889.037 287.47 891.167 290.263C893.297 293.056 894.362 296.724 894.362 301.268V322H883.712V302.475C883.712 300.582 883.262 299.043 882.363 297.86C881.464 296.629 880.067 296.014 878.174 296.014C875.76 296.014 873.914 296.937 872.636 298.783C871.405 300.629 870.79 303.043 870.79 306.025V322H860.14V287.21H870.08V291.612ZM918.073 338.472C915.565 338.472 913.316 338.141 911.328 337.478C909.34 336.863 907.589 336.034 906.074 334.993C904.607 333.999 903.376 332.863 902.382 331.585C901.436 330.354 900.726 329.1 900.252 327.822L910.476 323.775C911.139 325.574 912.18 326.899 913.6 327.751C915.02 328.65 916.511 329.1 918.073 329.1C920.629 329.1 922.688 328.272 924.25 326.615C925.86 324.958 926.664 322.592 926.664 319.515V317.598H925.954C923.777 320.533 920.464 322 916.014 322C914.026 322 912.062 321.598 910.121 320.793C908.181 319.941 906.429 318.758 904.867 317.243C903.305 315.681 902.051 313.788 901.104 311.563C900.158 309.338 899.684 306.83 899.684 304.037C899.684 301.244 900.158 298.736 901.104 296.511C902.051 294.286 903.305 292.417 904.867 290.902C906.429 289.34 908.181 288.157 910.121 287.352C912.062 286.5 914.026 286.074 916.014 286.074C920.464 286.074 923.777 287.541 925.954 290.476H926.664V287.21H936.888V319.018C936.888 321.858 936.439 324.461 935.539 326.828C934.687 329.242 933.433 331.301 931.776 333.005C930.167 334.756 928.203 336.105 925.883 337.052C923.564 337.999 920.961 338.472 918.073 338.472ZM918.499 312.344C919.493 312.344 920.464 312.178 921.41 311.847C922.404 311.468 923.28 310.948 924.037 310.285C924.842 309.575 925.481 308.699 925.954 307.658C926.428 306.617 926.664 305.41 926.664 304.037C926.664 302.664 926.428 301.457 925.954 300.416C925.481 299.375 924.842 298.523 924.037 297.86C923.28 297.15 922.404 296.629 921.41 296.298C920.464 295.919 919.493 295.73 918.499 295.73C917.505 295.73 916.511 295.919 915.517 296.298C914.571 296.629 913.695 297.15 912.89 297.86C912.133 298.523 911.518 299.375 911.044 300.416C910.571 301.457 910.334 302.664 910.334 304.037C910.334 305.41 910.571 306.617 911.044 307.658C911.518 308.699 912.133 309.575 912.89 310.285C913.695 310.948 914.571 311.468 915.517 311.847C916.511 312.178 917.505 312.344 918.499 312.344ZM971.292 323.136C969.209 323.136 967.245 322.828 965.399 322.213C963.6 321.645 961.943 320.817 960.429 319.728C958.914 318.592 957.589 317.267 956.453 315.752C955.364 314.19 954.536 312.462 953.968 310.569L964.05 306.451C964.523 308.25 965.351 309.741 966.535 310.924C967.718 312.06 969.304 312.628 971.292 312.628C973.232 312.628 974.747 312.06 975.836 310.924C976.924 309.741 977.469 307.942 977.469 305.528V271.164H988.545V305.67C988.545 308.557 988.071 311.09 987.125 313.267C986.225 315.444 984.971 317.267 983.362 318.734C981.8 320.201 979.977 321.29 977.895 322C975.812 322.757 973.611 323.136 971.292 323.136ZM1020.11 317.598H1019.4C1017.03 321.29 1013.48 323.136 1008.75 323.136C1004.39 323.136 1001.15 321.74 999.019 318.947C996.889 316.154 995.824 312.486 995.824 307.942V287.21H1006.47V306.735C1006.47 308.628 1006.92 310.19 1007.82 311.421C1008.72 312.604 1010.12 313.196 1012.01 313.196C1014.43 313.196 1016.25 312.273 1017.48 310.427C1018.76 308.581 1019.4 306.167 1019.4 303.185V287.21H1030.05V322H1020.11V317.598ZM1054.04 338.472C1051.53 338.472 1049.28 338.141 1047.3 337.478C1045.31 336.863 1043.56 336.034 1042.04 334.993C1040.57 333.999 1039.34 332.863 1038.35 331.585C1037.4 330.354 1036.69 329.1 1036.22 327.822L1046.44 323.775C1047.11 325.574 1048.15 326.899 1049.57 327.751C1050.99 328.65 1052.48 329.1 1054.04 329.1C1056.6 329.1 1058.66 328.272 1060.22 326.615C1061.83 324.958 1062.63 322.592 1062.63 319.515V317.598H1061.92C1059.74 320.533 1056.43 322 1051.98 322C1049.99 322 1048.03 321.598 1046.09 320.793C1044.15 319.941 1042.4 318.758 1040.84 317.243C1039.27 315.681 1038.02 313.788 1037.07 311.563C1036.13 309.338 1035.65 306.83 1035.65 304.037C1035.65 301.244 1036.13 298.736 1037.07 296.511C1038.02 294.286 1039.27 292.417 1040.84 290.902C1042.4 289.34 1044.15 288.157 1046.09 287.352C1048.03 286.5 1049.99 286.074 1051.98 286.074C1056.43 286.074 1059.74 287.541 1061.92 290.476H1062.63V287.21H1072.86V319.018C1072.86 321.858 1072.41 324.461 1071.51 326.828C1070.66 329.242 1069.4 331.301 1067.74 333.005C1066.13 334.756 1064.17 336.105 1061.85 337.052C1059.53 337.999 1056.93 338.472 1054.04 338.472ZM1054.47 312.344C1055.46 312.344 1056.43 312.178 1057.38 311.847C1058.37 311.468 1059.25 310.948 1060.01 310.285C1060.81 309.575 1061.45 308.699 1061.92 307.658C1062.4 306.617 1062.63 305.41 1062.63 304.037C1062.63 302.664 1062.4 301.457 1061.92 300.416C1061.45 299.375 1060.81 298.523 1060.01 297.86C1059.25 297.15 1058.37 296.629 1057.38 296.298C1056.43 295.919 1055.46 295.73 1054.47 295.73C1053.47 295.73 1052.48 295.919 1051.49 296.298C1050.54 296.629 1049.66 297.15 1048.86 297.86C1048.1 298.523 1047.49 299.375 1047.01 300.416C1046.54 301.457 1046.3 302.664 1046.3 304.037C1046.3 305.41 1046.54 306.617 1047.01 307.658C1047.49 308.699 1048.1 309.575 1048.86 310.285C1049.66 310.948 1050.54 311.468 1051.49 311.847C1052.48 312.178 1053.47 312.344 1054.47 312.344ZM1101.36 318.876H1100.65C1099.52 320.107 1098.22 321.124 1096.75 321.929C1095.33 322.734 1093.48 323.136 1091.21 323.136C1089.46 323.136 1087.8 322.852 1086.24 322.284C1084.73 321.716 1083.38 320.911 1082.19 319.87C1081.06 318.829 1080.16 317.574 1079.5 316.107C1078.83 314.64 1078.5 313.007 1078.5 311.208C1078.5 309.457 1078.86 307.871 1079.57 306.451C1080.28 304.984 1081.25 303.729 1082.48 302.688C1083.71 301.647 1085.15 300.842 1086.81 300.274C1088.51 299.706 1090.36 299.422 1092.35 299.422C1094.48 299.422 1096.23 299.564 1097.6 299.848C1099.02 300.132 1100.28 300.463 1101.36 300.842V299.919C1101.36 298.404 1100.72 297.126 1099.45 296.085C1098.22 294.996 1096.54 294.452 1094.41 294.452C1091.33 294.452 1088.68 295.706 1086.45 298.215L1079.21 293.103C1081.2 290.736 1083.5 288.985 1086.1 287.849C1088.75 286.666 1091.66 286.074 1094.83 286.074C1100.51 286.074 1104.8 287.352 1107.68 289.908C1110.57 292.417 1112.01 296.251 1112.01 301.41V322H1101.36V318.876ZM1101.36 308.297C1100.28 307.871 1099.19 307.54 1098.1 307.303C1097.06 307.066 1095.97 306.948 1094.83 306.948C1092.94 306.948 1091.52 307.35 1090.57 308.155C1089.63 308.912 1089.15 309.906 1089.15 311.137C1089.15 312.368 1089.6 313.362 1090.5 314.119C1091.4 314.829 1092.58 315.184 1094.05 315.184C1095.23 315.184 1096.28 314.995 1097.17 314.616C1098.12 314.19 1098.9 313.646 1099.52 312.983C1100.13 312.32 1100.58 311.587 1100.87 310.782C1101.2 309.93 1101.36 309.102 1101.36 308.297ZM1125.64 322.426C1123.74 322.426 1122.13 321.763 1120.81 320.438C1119.48 319.113 1118.82 317.503 1118.82 315.61C1118.82 313.717 1119.48 312.107 1120.81 310.782C1122.13 309.457 1123.74 308.794 1125.64 308.794C1127.53 308.794 1129.14 309.457 1130.46 310.782C1131.79 312.107 1132.45 313.717 1132.45 315.61C1132.45 317.503 1131.79 319.113 1130.46 320.438C1129.14 321.763 1127.53 322.426 1125.64 322.426ZM1120.1 285.08V271.164H1131.17V285.08L1130.18 303.682H1121.09L1120.1 285.08Z" fill="#2C2C2C"/>
<path d="M635 363.5C636.333 360.333 640.8 354 648 354C657 354 654 363.5 663 363.5C672 363.5 673 354 680.5 354C688 354 684 363.5 695 363.5C706 363.5 703 354 711.5 354C720 354 716.5 367 726.5 363.5C736.5 360 733.5 354 745 354C756.5 354 746.5 363.5 757 363.5C767.5 363.5 765.5 354 772.5 354C779.5 354 776.5 363.5 788 363.5C799.5 363.5 796 354 806 354C816 354 808.5 363.5 819.5 363.5C830.5 363.5 823 354 834.5 354C846 354 839 363.5 848.5 363.5C858 363.5 858.5 354 867 354C875.5 354 869.5 363.5 877 363.5C884.5 363.5 884 354 892 354C900 354 898.5 363.5 907.5 363.5C916.5 363.5 908.5 354 916.5 354C924.5 354 922.5 363.5 933 363.5" stroke="#5B7478" stroke-width="3" stroke-linecap="round"/>
</svg>
