<svg width="1600" height="418" viewBox="0 0 1600 418" fill="none" xmlns="http://www.w3.org/2000/svg">
<path d="M0 0H1600V388C1600 404.569 1586.57 418 1570 418H30C13.4315 418 0 404.569 0 388V0Z" fill="#DDD3B4"/>
<path d="M-183 26.0463C-126.5 -11.6204 -1.4 -75.6537 47 -30.4537C107.5 26.0463 -215 238.046 -84 211.046C47 184.046 67 93.0463 204.5 111.546C342 130.046 123.5 229.046 123.5 299.046C123.5 355.046 257.167 344.713 324 332.546" stroke="#C8C0A6" stroke-width="62" stroke-linecap="round"/>
<path d="M1764 26.0463C1707.5 -11.6204 1582.4 -75.6537 1534 -30.4537C1473.5 26.0463 1796 238.046 1665 211.046C1534 184.046 1514 93.0463 1376.5 111.546C1239 130.046 1457.5 229.046 1457.5 299.046C1457.5 355.046 1323.83 344.713 1257 332.546" stroke="#C8C0A6" stroke-width="62" stroke-linecap="round"/>
<path d="M323.277 165.164H334.353V205.492H355.653V216H323.277V165.164ZM367.208 177.376C366.262 177.376 365.386 177.21 364.581 176.879C363.777 176.5 363.067 176.027 362.451 175.459C361.883 174.844 361.41 174.134 361.031 173.329C360.7 172.524 360.534 171.649 360.534 170.702C360.534 169.803 360.7 168.951 361.031 168.146C361.41 167.294 361.883 166.584 362.451 166.016C363.067 165.401 363.777 164.927 364.581 164.596C365.386 164.217 366.262 164.028 367.208 164.028C368.108 164.028 368.96 164.217 369.764 164.596C370.616 164.927 371.326 165.401 371.894 166.016C372.51 166.584 372.983 167.294 373.314 168.146C373.693 168.951 373.882 169.803 373.882 170.702C373.882 171.649 373.693 172.524 373.314 173.329C372.983 174.134 372.51 174.844 371.894 175.459C371.326 176.027 370.616 176.5 369.764 176.879C368.96 177.21 368.108 177.376 367.208 177.376ZM361.883 216V181.21H372.533V216H361.883ZM381.076 165.164H391.726V178.512L391.016 185.612H391.726C392.815 183.908 394.258 182.559 396.057 181.565C397.856 180.571 399.891 180.074 402.163 180.074C406.565 180.074 409.855 181.399 412.032 184.05C414.209 186.701 415.298 190.44 415.298 195.268V216H404.648V196.475C404.648 194.582 404.198 193.043 403.299 191.86C402.4 190.629 401.003 190.014 399.11 190.014C396.696 190.014 394.85 190.937 393.572 192.783C392.341 194.629 391.726 197.043 391.726 200.025V216H381.076V165.164ZM443.482 212.876H442.772C441.636 214.107 440.335 215.124 438.867 215.929C437.447 216.734 435.601 217.136 433.329 217.136C431.578 217.136 429.921 216.852 428.359 216.284C426.845 215.716 425.496 214.911 424.312 213.87C423.176 212.829 422.277 211.574 421.614 210.107C420.952 208.64 420.62 207.007 420.62 205.208C420.62 203.457 420.975 201.871 421.685 200.451C422.395 198.984 423.366 197.729 424.596 196.688C425.827 195.647 427.271 194.842 428.927 194.274C430.631 193.706 432.477 193.422 434.465 193.422C436.595 193.422 438.347 193.564 439.719 193.848C441.139 194.132 442.394 194.463 443.482 194.842V193.919C443.482 192.404 442.843 191.126 441.565 190.085C440.335 188.996 438.654 188.452 436.524 188.452C433.448 188.452 430.797 189.706 428.572 192.215L421.33 187.103C423.318 184.736 425.614 182.985 428.217 181.849C430.868 180.666 433.779 180.074 436.95 180.074C442.63 180.074 446.914 181.352 449.801 183.908C452.689 186.417 454.132 190.251 454.132 195.41V216H443.482V212.876ZM443.482 202.297C442.394 201.871 441.305 201.54 440.216 201.303C439.175 201.066 438.086 200.948 436.95 200.948C435.057 200.948 433.637 201.35 432.69 202.155C431.744 202.912 431.27 203.906 431.27 205.137C431.27 206.368 431.72 207.362 432.619 208.119C433.519 208.829 434.702 209.184 436.169 209.184C437.353 209.184 438.394 208.995 439.293 208.616C440.24 208.19 441.021 207.646 441.636 206.983C442.252 206.32 442.701 205.587 442.985 204.782C443.317 203.93 443.482 203.102 443.482 202.297ZM464.646 190.156H458.54V181.21H464.646V170.56H475.296V181.21H483.887V190.156H475.296V201.871C475.296 202.628 475.391 203.338 475.58 204.001C475.77 204.616 476.101 205.137 476.574 205.563C477.284 206.178 478.207 206.486 479.343 206.486C480.101 206.486 480.74 206.391 481.26 206.202C481.781 206.013 482.231 205.776 482.609 205.492L485.591 214.722C484.361 215.29 483.035 215.74 481.615 216.071C480.195 216.402 478.681 216.568 477.071 216.568C473.332 216.568 470.374 215.479 468.196 213.302C467.06 212.166 466.185 210.77 465.569 209.113C464.954 207.409 464.646 205.539 464.646 203.504V190.156ZM521.678 217.136C516.944 217.136 512.85 215.882 509.395 213.373C505.987 210.817 503.573 207.172 502.153 202.439L512.59 198.321C513.205 200.735 514.223 202.723 515.643 204.285C517.063 205.847 519.074 206.628 521.678 206.628C522.53 206.628 523.334 206.533 524.092 206.344C524.896 206.155 525.583 205.871 526.151 205.492C526.766 205.066 527.263 204.545 527.642 203.93C528.02 203.315 528.21 202.605 528.21 201.8C528.21 200.995 528.044 200.262 527.713 199.599C527.429 198.889 526.932 198.25 526.222 197.682C525.512 197.067 524.565 196.475 523.382 195.907C522.198 195.292 520.707 194.653 518.909 193.99L515.785 192.854C514.459 192.381 513.087 191.742 511.667 190.937C510.294 190.085 509.04 189.067 507.904 187.884C506.768 186.701 505.845 185.352 505.135 183.837C504.425 182.275 504.07 180.547 504.07 178.654C504.07 176.619 504.472 174.702 505.277 172.903C506.081 171.104 507.217 169.566 508.685 168.288C510.152 166.963 511.927 165.921 514.01 165.164C516.092 164.407 518.388 164.028 520.897 164.028C523.547 164.028 525.819 164.383 527.713 165.093C529.606 165.756 531.215 166.631 532.541 167.72C533.866 168.761 534.907 169.945 535.665 171.27C536.469 172.595 537.085 173.873 537.511 175.104L527.926 179.151C527.405 177.636 526.577 176.429 525.441 175.53C524.305 174.583 522.837 174.11 521.039 174.11C519.145 174.11 517.631 174.512 516.495 175.317C515.406 176.074 514.862 177.068 514.862 178.299C514.862 179.577 515.43 180.713 516.566 181.707C517.702 182.701 519.713 183.695 522.601 184.689L525.725 185.754C530.032 187.221 533.369 189.186 535.736 191.647C538.102 194.108 539.286 197.422 539.286 201.587C539.286 204.238 538.741 206.533 537.653 208.474C536.611 210.415 535.239 212.024 533.535 213.302C531.878 214.58 529.985 215.527 527.855 216.142C525.772 216.805 523.713 217.136 521.678 217.136ZM579.68 207.551C577.976 210.533 575.728 212.876 572.935 214.58C570.19 216.284 566.853 217.136 562.924 217.136C560.226 217.136 557.718 216.686 555.398 215.787C553.126 214.84 551.138 213.539 549.434 211.882C547.73 210.225 546.405 208.285 545.458 206.06C544.512 203.788 544.038 201.303 544.038 198.605C544.038 196.096 544.512 193.73 545.458 191.505C546.405 189.233 547.707 187.269 549.363 185.612C551.067 183.908 553.032 182.559 555.256 181.565C557.528 180.571 559.99 180.074 562.64 180.074C565.528 180.074 568.06 180.547 570.237 181.494C572.462 182.441 574.308 183.742 575.775 185.399C577.243 187.008 578.355 188.925 579.112 191.15C579.87 193.327 580.248 195.67 580.248 198.179C580.248 198.558 580.225 198.936 580.177 199.315C580.177 199.694 580.154 200.025 580.106 200.309C580.059 200.64 580.035 200.948 580.035 201.232H554.404C554.925 203.504 555.99 205.161 557.599 206.202C559.209 207.243 561.007 207.764 562.995 207.764C564.983 207.764 566.616 207.338 567.894 206.486C569.22 205.634 570.261 204.545 571.018 203.22L579.68 207.551ZM570.237 193.99C570.143 193.422 569.906 192.807 569.527 192.144C569.196 191.481 568.699 190.89 568.036 190.369C567.421 189.801 566.64 189.351 565.693 189.02C564.794 188.641 563.776 188.452 562.64 188.452C560.984 188.452 559.445 188.925 558.025 189.872C556.605 190.819 555.564 192.191 554.901 193.99H570.237ZM586.241 181.21H596.181V185.612H596.891C598.027 183.861 599.471 182.512 601.222 181.565C603.021 180.571 605.127 180.074 607.541 180.074C610.192 180.074 612.393 180.713 614.144 181.991C615.895 183.222 617.126 184.665 617.836 186.322C618.877 184.665 620.368 183.222 622.309 181.991C624.25 180.713 626.687 180.074 629.622 180.074C631.705 180.074 633.527 180.429 635.089 181.139C636.651 181.802 637.929 182.748 638.923 183.979C639.964 185.21 640.745 186.677 641.266 188.381C641.787 190.085 642.047 191.955 642.047 193.99V216H631.397V196.049C631.397 194.25 630.971 192.807 630.119 191.718C629.314 190.582 628.107 190.014 626.498 190.014C624.179 190.014 622.427 190.961 621.244 192.854C620.061 194.7 619.469 197.185 619.469 200.309V216H608.819V196.049C608.819 194.25 608.369 192.807 607.47 191.718C606.618 190.582 605.269 190.014 603.423 190.014C601.246 190.014 599.613 190.961 598.524 192.854C597.435 194.7 596.891 197.185 596.891 200.309V216H586.241V181.21ZM673.682 211.598H672.972C670.605 215.29 667.055 217.136 662.322 217.136C657.967 217.136 654.725 215.74 652.595 212.947C650.465 210.154 649.4 206.486 649.4 201.942V181.21H660.05V200.735C660.05 202.628 660.499 204.19 661.399 205.421C662.298 206.604 663.694 207.196 665.588 207.196C668.002 207.196 669.824 206.273 671.055 204.427C672.333 202.581 672.972 200.167 672.972 197.185V181.21H683.622V216H673.682V211.598ZM712.09 212.876H711.38C710.244 214.107 708.942 215.124 707.475 215.929C706.055 216.734 704.209 217.136 701.937 217.136C700.185 217.136 698.529 216.852 696.967 216.284C695.452 215.716 694.103 214.911 692.92 213.87C691.784 212.829 690.884 211.574 690.222 210.107C689.559 208.64 689.228 207.007 689.228 205.208C689.228 203.457 689.583 201.871 690.293 200.451C691.003 198.984 691.973 197.729 693.204 196.688C694.434 195.647 695.878 194.842 697.535 194.274C699.239 193.706 701.085 193.422 703.073 193.422C705.203 193.422 706.954 193.564 708.327 193.848C709.747 194.132 711.001 194.463 712.09 194.842V193.919C712.09 192.404 711.451 191.126 710.173 190.085C708.942 188.996 707.262 188.452 705.132 188.452C702.055 188.452 699.404 189.706 697.18 192.215L689.938 187.103C691.926 184.736 694.221 182.985 696.825 181.849C699.475 180.666 702.386 180.074 705.558 180.074C711.238 180.074 715.521 181.352 718.409 183.908C721.296 186.417 722.74 190.251 722.74 195.41V216H712.09V212.876ZM712.09 202.297C711.001 201.871 709.912 201.54 708.824 201.303C707.782 201.066 706.694 200.948 705.558 200.948C703.664 200.948 702.244 201.35 701.298 202.155C700.351 202.912 699.878 203.906 699.878 205.137C699.878 206.368 700.327 207.362 701.227 208.119C702.126 208.829 703.309 209.184 704.777 209.184C705.96 209.184 707.001 208.995 707.901 208.616C708.847 208.19 709.628 207.646 710.244 206.983C710.859 206.32 711.309 205.587 711.593 204.782C711.924 203.93 712.09 203.102 712.09 202.297ZM759.468 165.164H772.248L791.276 216H779.064L775.159 204.64H756.557L752.652 216H740.44L759.468 165.164ZM771.609 194.558L767.917 183.908L766.213 177.66H765.503L763.799 183.908L760.107 194.558H771.609ZM796.121 165.164H806.771V191.008H807.481L817.421 181.21H830.414V181.92L817.847 193.99L831.692 215.29V216H819.196L810.321 201.303L806.771 204.711V216H796.121V165.164ZM839.199 190.156H833.093V181.21H839.199V170.56H849.849V181.21H858.44V190.156H849.849V201.871C849.849 202.628 849.944 203.338 850.133 204.001C850.322 204.616 850.654 205.137 851.127 205.563C851.837 206.178 852.76 206.486 853.896 206.486C854.653 206.486 855.292 206.391 855.813 206.202C856.334 206.013 856.783 205.776 857.162 205.492L860.144 214.722C858.913 215.29 857.588 215.74 856.168 216.071C854.748 216.402 853.233 216.568 851.624 216.568C847.885 216.568 844.926 215.479 842.749 213.302C841.613 212.166 840.737 210.77 840.122 209.113C839.507 207.409 839.199 205.539 839.199 203.504V190.156ZM871.766 177.376C870.819 177.376 869.944 177.21 869.139 176.879C868.334 176.5 867.624 176.027 867.009 175.459C866.441 174.844 865.968 174.134 865.589 173.329C865.258 172.524 865.092 171.649 865.092 170.702C865.092 169.803 865.258 168.951 865.589 168.146C865.968 167.294 866.441 166.584 867.009 166.016C867.624 165.401 868.334 164.927 869.139 164.596C869.944 164.217 870.819 164.028 871.766 164.028C872.665 164.028 873.517 164.217 874.322 164.596C875.174 164.927 875.884 165.401 876.452 166.016C877.067 166.584 877.541 167.294 877.872 168.146C878.251 168.951 878.44 169.803 878.44 170.702C878.44 171.649 878.251 172.524 877.872 173.329C877.541 174.134 877.067 174.844 876.452 175.459C875.884 176.027 875.174 176.5 874.322 176.879C873.517 177.21 872.665 177.376 871.766 177.376ZM866.441 216V181.21H877.091V216H866.441ZM881.942 181.21H894.296L902.106 200.948H902.816L910.768 181.21H922.98L907.644 216H897.136L881.942 181.21ZM933.128 177.376C932.182 177.376 931.306 177.21 930.501 176.879C929.697 176.5 928.987 176.027 928.371 175.459C927.803 174.844 927.33 174.134 926.951 173.329C926.62 172.524 926.454 171.649 926.454 170.702C926.454 169.803 926.62 168.951 926.951 168.146C927.33 167.294 927.803 166.584 928.371 166.016C928.987 165.401 929.697 164.927 930.501 164.596C931.306 164.217 932.182 164.028 933.128 164.028C934.028 164.028 934.88 164.217 935.684 164.596C936.536 164.927 937.246 165.401 937.814 166.016C938.43 166.584 938.903 167.294 939.234 168.146C939.613 168.951 939.802 169.803 939.802 170.702C939.802 171.649 939.613 172.524 939.234 173.329C938.903 174.134 938.43 174.844 937.814 175.459C937.246 176.027 936.536 176.5 935.684 176.879C934.88 177.21 934.028 177.376 933.128 177.376ZM927.803 216V181.21H938.453V216H927.803ZM950.483 190.156H944.377V181.21H950.483V170.56H961.133V181.21H969.724V190.156H961.133V201.871C961.133 202.628 961.228 203.338 961.417 204.001C961.607 204.616 961.938 205.137 962.411 205.563C963.121 206.178 964.044 206.486 965.18 206.486C965.938 206.486 966.577 206.391 967.097 206.202C967.618 206.013 968.068 205.776 968.446 205.492L971.428 214.722C970.198 215.29 968.872 215.74 967.452 216.071C966.032 216.402 964.518 216.568 962.908 216.568C959.169 216.568 956.211 215.479 954.033 213.302C952.897 212.166 952.022 210.77 951.406 209.113C950.791 207.409 950.483 205.539 950.483 203.504V190.156ZM996.991 212.876H996.281C995.145 214.107 993.843 215.124 992.376 215.929C990.956 216.734 989.11 217.136 986.838 217.136C985.087 217.136 983.43 216.852 981.868 216.284C980.353 215.716 979.004 214.911 977.821 213.87C976.685 212.829 975.786 211.574 975.123 210.107C974.46 208.64 974.129 207.007 974.129 205.208C974.129 203.457 974.484 201.871 975.194 200.451C975.904 198.984 976.874 197.729 978.105 196.688C979.336 195.647 980.779 194.842 982.436 194.274C984.14 193.706 985.986 193.422 987.974 193.422C990.104 193.422 991.855 193.564 993.228 193.848C994.648 194.132 995.902 194.463 996.991 194.842V193.919C996.991 192.404 996.352 191.126 995.074 190.085C993.843 188.996 992.163 188.452 990.033 188.452C986.956 188.452 984.306 189.706 982.081 192.215L974.839 187.103C976.827 184.736 979.123 182.985 981.726 181.849C984.377 180.666 987.288 180.074 990.459 180.074C996.139 180.074 1000.42 181.352 1003.31 183.908C1006.2 186.417 1007.64 190.251 1007.64 195.41V216H996.991V212.876ZM996.991 202.297C995.902 201.871 994.814 201.54 993.725 201.303C992.684 201.066 991.595 200.948 990.459 200.948C988.566 200.948 987.146 201.35 986.199 202.155C985.252 202.912 984.779 203.906 984.779 205.137C984.779 206.368 985.229 207.362 986.128 208.119C987.027 208.829 988.211 209.184 989.678 209.184C990.861 209.184 991.903 208.995 992.802 208.616C993.749 208.19 994.53 207.646 995.145 206.983C995.76 206.32 996.21 205.587 996.494 204.782C996.825 203.93 996.991 203.102 996.991 202.297ZM1029.01 217.136C1026.6 217.136 1024.47 216.852 1022.62 216.284C1020.77 215.716 1019.16 214.982 1017.79 214.083C1016.47 213.136 1015.35 212.071 1014.45 210.888C1013.56 209.657 1012.87 208.427 1012.4 207.196L1021.98 203.149C1022.64 204.758 1023.57 205.942 1024.75 206.699C1025.93 207.409 1027.35 207.764 1029.01 207.764C1030.43 207.764 1031.52 207.551 1032.28 207.125C1033.08 206.652 1033.48 206.06 1033.48 205.35C1033.48 204.545 1033.1 203.93 1032.35 203.504C1031.59 203.031 1030.38 202.605 1028.73 202.226L1023.97 201.232C1022.83 200.995 1021.67 200.617 1020.49 200.096C1019.31 199.575 1018.22 198.889 1017.22 198.037C1016.23 197.185 1015.43 196.191 1014.81 195.055C1014.19 193.872 1013.89 192.523 1013.89 191.008C1013.89 189.351 1014.24 187.86 1014.95 186.535C1015.71 185.162 1016.73 184.003 1018 183.056C1019.28 182.109 1020.8 181.376 1022.55 180.855C1024.3 180.334 1026.22 180.074 1028.3 180.074C1031.9 180.074 1035 180.713 1037.6 181.991C1040.2 183.222 1042.17 185.304 1043.49 188.239L1034.33 192.002C1033.72 190.771 1032.84 189.872 1031.71 189.304C1030.62 188.736 1029.51 188.452 1028.37 188.452C1027.14 188.452 1026.15 188.665 1025.39 189.091C1024.63 189.517 1024.25 190.038 1024.25 190.653C1024.25 191.316 1024.63 191.86 1025.39 192.286C1026.19 192.665 1027.16 192.996 1028.3 193.28L1033.7 194.558C1037.25 195.41 1039.9 196.783 1041.65 198.676C1043.4 200.569 1044.27 202.794 1044.27 205.35C1044.27 206.912 1043.9 208.403 1043.14 209.823C1042.43 211.243 1041.39 212.497 1040.01 213.586C1038.69 214.675 1037.08 215.527 1035.19 216.142C1033.34 216.805 1031.28 217.136 1029.01 217.136ZM1066.7 165.164H1077.77V205.492H1099.07V216H1066.7V165.164ZM1138.39 207.551C1136.69 210.533 1134.44 212.876 1131.64 214.58C1128.9 216.284 1125.56 217.136 1121.63 217.136C1118.94 217.136 1116.43 216.686 1114.11 215.787C1111.84 214.84 1109.85 213.539 1108.14 211.882C1106.44 210.225 1105.11 208.285 1104.17 206.06C1103.22 203.788 1102.75 201.303 1102.75 198.605C1102.75 196.096 1103.22 193.73 1104.17 191.505C1105.11 189.233 1106.42 187.269 1108.07 185.612C1109.78 183.908 1111.74 182.559 1113.97 181.565C1116.24 180.571 1118.7 180.074 1121.35 180.074C1124.24 180.074 1126.77 180.547 1128.95 181.494C1131.17 182.441 1133.02 183.742 1134.48 185.399C1135.95 187.008 1137.06 188.925 1137.82 191.15C1138.58 193.327 1138.96 195.67 1138.96 198.179C1138.96 198.558 1138.93 198.936 1138.89 199.315C1138.89 199.694 1138.86 200.025 1138.82 200.309C1138.77 200.64 1138.74 200.948 1138.74 201.232H1113.11C1113.63 203.504 1114.7 205.161 1116.31 206.202C1117.92 207.243 1119.72 207.764 1121.7 207.764C1123.69 207.764 1125.33 207.338 1126.6 206.486C1127.93 205.634 1128.97 204.545 1129.73 203.22L1138.39 207.551ZM1128.95 193.99C1128.85 193.422 1128.61 192.807 1128.24 192.144C1127.9 191.481 1127.41 190.89 1126.75 190.369C1126.13 189.801 1125.35 189.351 1124.4 189.02C1123.5 188.641 1122.49 188.452 1121.35 188.452C1119.69 188.452 1118.15 188.925 1116.73 189.872C1115.31 190.819 1114.27 192.191 1113.61 193.99H1128.95ZM1144.95 216V165.164H1155.6V216H1144.95ZM1184.06 212.876H1183.35C1182.21 214.107 1180.91 215.124 1179.44 215.929C1178.02 216.734 1176.18 217.136 1173.91 217.136C1172.16 217.136 1170.5 216.852 1168.94 216.284C1167.42 215.716 1166.07 214.911 1164.89 213.87C1163.75 212.829 1162.85 211.574 1162.19 210.107C1161.53 208.64 1161.2 207.007 1161.2 205.208C1161.2 203.457 1161.55 201.871 1162.26 200.451C1162.97 198.984 1163.94 197.729 1165.17 196.688C1166.4 195.647 1167.85 194.842 1169.5 194.274C1171.21 193.706 1173.05 193.422 1175.04 193.422C1177.17 193.422 1178.92 193.564 1180.3 193.848C1181.72 194.132 1182.97 194.463 1184.06 194.842V193.919C1184.06 192.404 1183.42 191.126 1182.14 190.085C1180.91 188.996 1179.23 188.452 1177.1 188.452C1174.02 188.452 1171.37 189.706 1169.15 192.215L1161.91 187.103C1163.9 184.736 1166.19 182.985 1168.79 181.849C1171.45 180.666 1174.36 180.074 1177.53 180.074C1183.21 180.074 1187.49 181.352 1190.38 183.908C1193.27 186.417 1194.71 190.251 1194.71 195.41V216H1184.06V212.876ZM1184.06 202.297C1182.97 201.871 1181.88 201.54 1180.79 201.303C1179.75 201.066 1178.66 200.948 1177.53 200.948C1175.63 200.948 1174.21 201.35 1173.27 202.155C1172.32 202.912 1171.85 203.906 1171.85 205.137C1171.85 206.368 1172.3 207.362 1173.2 208.119C1174.1 208.829 1175.28 209.184 1176.75 209.184C1177.93 209.184 1178.97 208.995 1179.87 208.616C1180.82 208.19 1181.6 207.646 1182.21 206.983C1182.83 206.32 1183.28 205.587 1183.56 204.782C1183.89 203.93 1184.06 203.102 1184.06 202.297ZM1212.02 185.612H1212.73C1215.1 181.92 1218.65 180.074 1223.38 180.074C1227.74 180.074 1230.98 181.47 1233.11 184.263C1235.24 187.056 1236.3 190.724 1236.3 195.268V216H1225.65V196.475C1225.65 194.582 1225.21 193.043 1224.31 191.86C1223.41 190.629 1222.01 190.014 1220.12 190.014C1217.7 190.014 1215.86 190.937 1214.58 192.783C1213.35 194.629 1212.73 197.043 1212.73 200.025V216H1202.08V181.21H1212.02V185.612ZM1260.02 232.472C1257.51 232.472 1255.26 232.141 1253.27 231.478C1251.28 230.863 1249.53 230.034 1248.02 228.993C1246.55 227.999 1245.32 226.863 1244.33 225.585C1243.38 224.354 1242.67 223.1 1242.2 221.822L1252.42 217.775C1253.08 219.574 1254.12 220.899 1255.54 221.751C1256.96 222.65 1258.45 223.1 1260.02 223.1C1262.57 223.1 1264.63 222.272 1266.19 220.615C1267.8 218.958 1268.61 216.592 1268.61 213.515V211.598H1267.9C1265.72 214.533 1262.41 216 1257.96 216C1255.97 216 1254 215.598 1252.06 214.793C1250.12 213.941 1248.37 212.758 1246.81 211.243C1245.25 209.681 1243.99 207.788 1243.05 205.563C1242.1 203.338 1241.63 200.83 1241.63 198.037C1241.63 195.244 1242.1 192.736 1243.05 190.511C1243.99 188.286 1245.25 186.417 1246.81 184.902C1248.37 183.34 1250.12 182.157 1252.06 181.352C1254 180.5 1255.97 180.074 1257.96 180.074C1262.41 180.074 1265.72 181.541 1267.9 184.476H1268.61V181.21H1278.83V213.018C1278.83 215.858 1278.38 218.461 1277.48 220.828C1276.63 223.242 1275.38 225.301 1273.72 227.005C1272.11 228.756 1270.15 230.105 1267.83 231.052C1265.51 231.999 1262.9 232.472 1260.02 232.472ZM1260.44 206.344C1261.44 206.344 1262.41 206.178 1263.35 205.847C1264.35 205.468 1265.22 204.948 1265.98 204.285C1266.78 203.575 1267.42 202.699 1267.9 201.658C1268.37 200.617 1268.61 199.41 1268.61 198.037C1268.61 196.664 1268.37 195.457 1267.9 194.416C1267.42 193.375 1266.78 192.523 1265.98 191.86C1265.22 191.15 1264.35 190.629 1263.35 190.298C1262.41 189.919 1261.44 189.73 1260.44 189.73C1259.45 189.73 1258.45 189.919 1257.46 190.298C1256.51 190.629 1255.64 191.15 1254.83 191.86C1254.08 192.523 1253.46 193.375 1252.99 194.416C1252.51 195.457 1252.28 196.664 1252.28 198.037C1252.28 199.41 1252.51 200.617 1252.99 201.658C1253.46 202.699 1254.08 203.575 1254.83 204.285C1255.64 204.948 1256.51 205.468 1257.46 205.847C1258.45 206.178 1259.45 206.344 1260.44 206.344ZM420.996 292.509L406.228 259.21H418.511L426.534 278.38H427.244L434.912 259.21H446.911L425.114 309.336H413.47L420.996 292.509ZM470.246 290.876H469.536C468.4 292.107 467.098 293.124 465.631 293.929C464.211 294.734 462.365 295.136 460.093 295.136C458.342 295.136 456.685 294.852 455.123 294.284C453.608 293.716 452.259 292.911 451.076 291.87C449.94 290.829 449.041 289.574 448.378 288.107C447.715 286.64 447.384 285.007 447.384 283.208C447.384 281.457 447.739 279.871 448.449 278.451C449.159 276.984 450.129 275.729 451.36 274.688C452.591 273.647 454.034 272.842 455.691 272.274C457.395 271.706 459.241 271.422 461.229 271.422C463.359 271.422 465.11 271.564 466.483 271.848C467.903 272.132 469.157 272.463 470.246 272.842V271.919C470.246 270.404 469.607 269.126 468.329 268.085C467.098 266.996 465.418 266.452 463.288 266.452C460.211 266.452 457.561 267.706 455.336 270.215L448.094 265.103C450.082 262.736 452.378 260.985 454.981 259.849C457.632 258.666 460.543 258.074 463.714 258.074C469.394 258.074 473.678 259.352 476.565 261.908C479.452 264.417 480.896 268.251 480.896 273.41V294H470.246V290.876ZM470.246 280.297C469.157 279.871 468.069 279.54 466.98 279.303C465.939 279.066 464.85 278.948 463.714 278.948C461.821 278.948 460.401 279.35 459.454 280.155C458.507 280.912 458.034 281.906 458.034 283.137C458.034 284.368 458.484 285.362 459.383 286.119C460.282 286.829 461.466 287.184 462.933 287.184C464.116 287.184 465.158 286.995 466.057 286.616C467.004 286.19 467.785 285.646 468.4 284.983C469.015 284.32 469.465 283.587 469.749 282.782C470.08 281.93 470.246 281.102 470.246 280.297ZM498.209 263.612H498.919C501.286 259.92 504.836 258.074 509.569 258.074C513.924 258.074 517.166 259.47 519.296 262.263C521.426 265.056 522.491 268.724 522.491 273.268V294H511.841V274.475C511.841 272.582 511.392 271.043 510.492 269.86C509.593 268.629 508.197 268.014 506.303 268.014C503.889 268.014 502.043 268.937 500.765 270.783C499.535 272.629 498.919 275.043 498.919 278.025V294H488.269V259.21H498.209V263.612ZM546.203 310.472C543.694 310.472 541.446 310.141 539.458 309.478C537.47 308.863 535.718 308.034 534.204 306.993C532.736 305.999 531.506 304.863 530.512 303.585C529.565 302.354 528.855 301.1 528.382 299.822L538.606 295.775C539.268 297.574 540.31 298.899 541.73 299.751C543.15 300.65 544.641 301.1 546.203 301.1C548.759 301.1 550.818 300.272 552.38 298.615C553.989 296.958 554.794 294.592 554.794 291.515V289.598H554.084C551.906 292.533 548.593 294 544.144 294C542.156 294 540.191 293.598 538.251 292.793C536.31 291.941 534.559 290.758 532.997 289.243C531.435 287.681 530.18 285.788 529.234 283.563C528.287 281.338 527.814 278.83 527.814 276.037C527.814 273.244 528.287 270.736 529.234 268.511C530.18 266.286 531.435 264.417 532.997 262.902C534.559 261.34 536.31 260.157 538.251 259.352C540.191 258.5 542.156 258.074 544.144 258.074C548.593 258.074 551.906 259.541 554.084 262.476H554.794V259.21H565.018V291.018C565.018 293.858 564.568 296.461 563.669 298.828C562.817 301.242 561.562 303.301 559.906 305.005C558.296 306.756 556.332 308.105 554.013 309.052C551.693 309.999 549.09 310.472 546.203 310.472ZM546.629 284.344C547.623 284.344 548.593 284.178 549.54 283.847C550.534 283.468 551.409 282.948 552.167 282.285C552.971 281.575 553.61 280.699 554.084 279.658C554.557 278.617 554.794 277.41 554.794 276.037C554.794 274.664 554.557 273.457 554.084 272.416C553.61 271.375 552.971 270.523 552.167 269.86C551.409 269.15 550.534 268.629 549.54 268.298C548.593 267.919 547.623 267.73 546.629 267.73C545.635 267.73 544.641 267.919 543.647 268.298C542.7 268.629 541.824 269.15 541.02 269.86C540.262 270.523 539.647 271.375 539.174 272.416C538.7 273.457 538.464 274.664 538.464 276.037C538.464 277.41 538.7 278.617 539.174 279.658C539.647 280.699 540.262 281.575 541.02 282.285C541.824 282.948 542.7 283.468 543.647 283.847C544.641 284.178 545.635 284.344 546.629 284.344ZM589.735 294V243.164H607.911C610.514 243.164 612.904 243.566 615.082 244.371C617.306 245.176 619.223 246.312 620.833 247.779C622.442 249.199 623.696 250.927 624.596 252.962C625.495 254.997 625.945 257.246 625.945 259.707C625.945 262.168 625.495 264.417 624.596 266.452C623.696 268.487 622.442 270.239 620.833 271.706C619.223 273.126 617.306 274.238 615.082 275.043C612.904 275.848 610.514 276.25 607.911 276.25H600.811V294H589.735ZM608.266 265.742C610.585 265.742 612.313 265.174 613.449 264.038C614.585 262.902 615.153 261.458 615.153 259.707C615.153 257.956 614.585 256.512 613.449 255.376C612.313 254.24 610.585 253.672 608.266 253.672H600.811V265.742H608.266ZM662.814 285.551C661.11 288.533 658.862 290.876 656.069 292.58C653.324 294.284 649.987 295.136 646.058 295.136C643.36 295.136 640.851 294.686 638.532 293.787C636.26 292.84 634.272 291.539 632.568 289.882C630.864 288.225 629.539 286.285 628.592 284.06C627.645 281.788 627.172 279.303 627.172 276.605C627.172 274.096 627.645 271.73 628.592 269.505C629.539 267.233 630.84 265.269 632.497 263.612C634.201 261.908 636.165 260.559 638.39 259.565C640.662 258.571 643.123 258.074 645.774 258.074C648.661 258.074 651.194 258.547 653.371 259.494C655.596 260.441 657.442 261.742 658.909 263.399C660.376 265.008 661.489 266.925 662.246 269.15C663.003 271.327 663.382 273.67 663.382 276.179C663.382 276.558 663.358 276.936 663.311 277.315C663.311 277.694 663.287 278.025 663.24 278.309C663.193 278.64 663.169 278.948 663.169 279.232H637.538C638.059 281.504 639.124 283.161 640.733 284.202C642.342 285.243 644.141 285.764 646.129 285.764C648.117 285.764 649.75 285.338 651.028 284.486C652.353 283.634 653.395 282.545 654.152 281.22L662.814 285.551ZM653.371 271.99C653.276 271.422 653.04 270.807 652.661 270.144C652.33 269.481 651.833 268.89 651.17 268.369C650.555 267.801 649.774 267.351 648.827 267.02C647.928 266.641 646.91 266.452 645.774 266.452C644.117 266.452 642.579 266.925 641.159 267.872C639.739 268.819 638.698 270.191 638.035 271.99H653.371ZM669.375 259.21H679.315V263.612H680.025C680.972 262.097 682.321 260.819 684.072 259.778C685.823 258.737 687.764 258.216 689.894 258.216C691.172 258.216 692.284 258.382 693.231 258.713C694.178 258.997 694.959 259.328 695.574 259.707L692.805 269.079C692.19 268.748 691.527 268.487 690.817 268.298C690.154 268.109 689.279 268.014 688.19 268.014C685.539 268.014 683.504 268.937 682.084 270.783C680.711 272.629 680.025 275.043 680.025 278.025V294H669.375V259.21ZM709.753 263.612H710.463C712.83 259.92 716.38 258.074 721.113 258.074C725.468 258.074 728.71 259.47 730.84 262.263C732.97 265.056 734.035 268.724 734.035 273.268V294H723.385V274.475C723.385 272.582 722.936 271.043 722.036 269.86C721.137 268.629 719.741 268.014 717.847 268.014C715.433 268.014 713.587 268.937 712.309 270.783C711.079 272.629 710.463 275.043 710.463 278.025V294H699.813V259.21H709.753V263.612ZM762.22 290.876H761.51C760.374 292.107 759.072 293.124 757.605 293.929C756.185 294.734 754.339 295.136 752.067 295.136C750.315 295.136 748.659 294.852 747.097 294.284C745.582 293.716 744.233 292.911 743.05 291.87C741.914 290.829 741.014 289.574 740.352 288.107C739.689 286.64 739.358 285.007 739.358 283.208C739.358 281.457 739.713 279.871 740.423 278.451C741.133 276.984 742.103 275.729 743.334 274.688C744.564 273.647 746.008 272.842 747.665 272.274C749.369 271.706 751.215 271.422 753.203 271.422C755.333 271.422 757.084 271.564 758.457 271.848C759.877 272.132 761.131 272.463 762.22 272.842V271.919C762.22 270.404 761.581 269.126 760.303 268.085C759.072 266.996 757.392 266.452 755.262 266.452C752.185 266.452 749.534 267.706 747.31 270.215L740.068 265.103C742.056 262.736 744.351 260.985 746.955 259.849C749.605 258.666 752.516 258.074 755.688 258.074C761.368 258.074 765.651 259.352 768.539 261.908C771.426 264.417 772.87 268.251 772.87 273.41V294H762.22V290.876ZM762.22 280.297C761.131 279.871 760.042 279.54 758.954 279.303C757.912 279.066 756.824 278.948 755.688 278.948C753.794 278.948 752.374 279.35 751.428 280.155C750.481 280.912 750.008 281.906 750.008 283.137C750.008 284.368 750.457 285.362 751.357 286.119C752.256 286.829 753.439 287.184 754.907 287.184C756.09 287.184 757.131 286.995 758.031 286.616C758.977 286.19 759.758 285.646 760.374 284.983C760.989 284.32 761.439 283.587 761.723 282.782C762.054 281.93 762.22 281.102 762.22 280.297ZM780.243 243.164H790.893V256.512L790.183 263.612H790.893C791.982 261.908 793.425 260.559 795.224 259.565C797.023 258.571 799.058 258.074 801.33 258.074C805.732 258.074 809.022 259.399 811.199 262.05C813.376 264.701 814.465 268.44 814.465 273.268V294H803.815V274.475C803.815 272.582 803.365 271.043 802.466 269.86C801.567 268.629 800.17 268.014 798.277 268.014C795.863 268.014 794.017 268.937 792.739 270.783C791.508 272.629 790.893 275.043 790.893 278.025V294H780.243V243.164ZM838.859 243.164H849.935V262.76H850.645L867.401 243.164H880.536V243.874L862.431 264.535L882.737 293.29V294H869.247L854.763 273.339L849.935 278.948V294H838.859V243.164ZM907.062 290.876H906.352C905.216 292.107 903.915 293.124 902.447 293.929C901.027 294.734 899.181 295.136 896.909 295.136C895.158 295.136 893.501 294.852 891.939 294.284C890.425 293.716 889.076 292.911 887.892 291.87C886.756 290.829 885.857 289.574 885.194 288.107C884.532 286.64 884.2 285.007 884.2 283.208C884.2 281.457 884.555 279.871 885.265 278.451C885.975 276.984 886.946 275.729 888.176 274.688C889.407 273.647 890.851 272.842 892.507 272.274C894.211 271.706 896.057 271.422 898.045 271.422C900.175 271.422 901.927 271.564 903.299 271.848C904.719 272.132 905.974 272.463 907.062 272.842V271.919C907.062 270.404 906.423 269.126 905.145 268.085C903.915 266.996 902.234 266.452 900.104 266.452C897.028 266.452 894.377 267.706 892.152 270.215L884.91 265.103C886.898 262.736 889.194 260.985 891.797 259.849C894.448 258.666 897.359 258.074 900.53 258.074C906.21 258.074 910.494 259.352 913.381 261.908C916.269 264.417 917.712 268.251 917.712 273.41V294H907.062V290.876ZM907.062 280.297C905.974 279.871 904.885 279.54 903.796 279.303C902.755 279.066 901.666 278.948 900.53 278.948C898.637 278.948 897.217 279.35 896.27 280.155C895.324 280.912 894.85 281.906 894.85 283.137C894.85 284.368 895.3 285.362 896.199 286.119C897.099 286.829 898.282 287.184 899.749 287.184C900.933 287.184 901.974 286.995 902.873 286.616C903.82 286.19 904.601 285.646 905.216 284.983C905.832 284.32 906.281 283.587 906.565 282.782C906.897 281.93 907.062 281.102 907.062 280.297ZM925.086 259.21H935.026V263.612H935.736C936.872 261.861 938.316 260.512 940.067 259.565C941.866 258.571 943.972 258.074 946.386 258.074C949.037 258.074 951.238 258.713 952.989 259.991C954.74 261.222 955.971 262.665 956.681 264.322C957.722 262.665 959.213 261.222 961.154 259.991C963.095 258.713 965.532 258.074 968.467 258.074C970.55 258.074 972.372 258.429 973.934 259.139C975.496 259.802 976.774 260.748 977.768 261.979C978.809 263.21 979.59 264.677 980.111 266.381C980.632 268.085 980.892 269.955 980.892 271.99V294H970.242V274.049C970.242 272.25 969.816 270.807 968.964 269.718C968.159 268.582 966.952 268.014 965.343 268.014C963.024 268.014 961.272 268.961 960.089 270.854C958.906 272.7 958.314 275.185 958.314 278.309V294H947.664V274.049C947.664 272.25 947.214 270.807 946.315 269.718C945.463 268.582 944.114 268.014 942.268 268.014C940.091 268.014 938.458 268.961 937.369 270.854C936.28 272.7 935.736 275.185 935.736 278.309V294H925.086V259.21ZM1012.53 289.598H1011.82C1009.45 293.29 1005.9 295.136 1001.17 295.136C996.812 295.136 993.569 293.74 991.439 290.947C989.309 288.154 988.244 284.486 988.244 279.942V259.21H998.894V278.735C998.894 280.628 999.344 282.19 1000.24 283.421C1001.14 284.604 1002.54 285.196 1004.43 285.196C1006.85 285.196 1008.67 284.273 1009.9 282.427C1011.18 280.581 1011.82 278.167 1011.82 275.185V259.21H1022.47V294H1012.53V289.598ZM1047.14 243.164H1058.22V294H1047.14V243.164ZM1067.29 243.164H1077.94V269.008H1078.65L1088.59 259.21H1101.59V259.92L1089.02 271.99L1102.86 293.29V294H1090.37L1081.49 279.303L1077.94 282.711V294H1067.29V243.164ZM1130.54 289.598H1129.83C1127.46 293.29 1123.91 295.136 1119.18 295.136C1114.82 295.136 1111.58 293.74 1109.45 290.947C1107.32 288.154 1106.25 284.486 1106.25 279.942V259.21H1116.9V278.735C1116.9 280.628 1117.35 282.19 1118.25 283.421C1119.15 284.604 1120.55 285.196 1122.44 285.196C1124.86 285.196 1126.68 284.273 1127.91 282.427C1129.19 280.581 1129.83 278.167 1129.83 275.185V259.21H1140.48V294H1130.54V289.598ZM1152.6 268.156H1146.49V259.21H1152.6V248.56H1163.25V259.21H1171.84V268.156H1163.25V279.871C1163.25 280.628 1163.34 281.338 1163.53 282.001C1163.72 282.616 1164.05 283.137 1164.53 283.563C1165.24 284.178 1166.16 284.486 1167.29 284.486C1168.05 284.486 1168.69 284.391 1169.21 284.202C1169.73 284.013 1170.18 283.776 1170.56 283.492L1173.54 292.722C1172.31 293.29 1170.99 293.74 1169.57 294.071C1168.15 294.402 1166.63 294.568 1165.02 294.568C1161.28 294.568 1158.32 293.479 1156.15 291.302C1155.01 290.166 1154.14 288.77 1153.52 287.113C1152.91 285.409 1152.6 283.539 1152.6 281.504V268.156ZM1185.16 255.376C1184.22 255.376 1183.34 255.21 1182.54 254.879C1181.73 254.5 1181.02 254.027 1180.41 253.459C1179.84 252.844 1179.37 252.134 1178.99 251.329C1178.66 250.524 1178.49 249.649 1178.49 248.702C1178.49 247.803 1178.66 246.951 1178.99 246.146C1179.37 245.294 1179.84 244.584 1180.41 244.016C1181.02 243.401 1181.73 242.927 1182.54 242.596C1183.34 242.217 1184.22 242.028 1185.16 242.028C1186.06 242.028 1186.92 242.217 1187.72 242.596C1188.57 242.927 1189.28 243.401 1189.85 244.016C1190.47 244.584 1190.94 245.294 1191.27 246.146C1191.65 246.951 1191.84 247.803 1191.84 248.702C1191.84 249.649 1191.65 250.524 1191.27 251.329C1190.94 252.134 1190.47 252.844 1189.85 253.459C1189.28 254.027 1188.57 254.5 1187.72 254.879C1186.92 255.21 1186.06 255.376 1185.16 255.376ZM1179.84 294V259.21H1190.49V294H1179.84Z" fill="#2C2C2C"/>
<path d="M633 347.5C634.333 344.333 638.8 338 646 338C655 338 652 347.5 661 347.5C670 347.5 671 338 678.5 338C686 338 682 347.5 693 347.5C704 347.5 701 338 709.5 338C718 338 714.5 351 724.5 347.5C734.5 344 731.5 338 743 338C754.5 338 744.5 347.5 755 347.5C765.5 347.5 763.5 338 770.5 338C777.5 338 774.5 347.5 786 347.5C797.5 347.5 794 338 804 338C814 338 806.5 347.5 817.5 347.5C828.5 347.5 821 338 832.5 338C844 338 837 347.5 846.5 347.5C856 347.5 856.5 338 865 338C873.5 338 867.5 347.5 875 347.5C882.5 347.5 882 338 890 338C898 338 896.5 347.5 905.5 347.5C914.5 347.5 906.5 338 914.5 338C922.5 338 920.5 347.5 931 347.5" stroke="#C8C0A6" stroke-width="3" stroke-linecap="round"/>
</svg>
