<svg width="36" height="35" viewBox="0 0 36 35" fill="none" xmlns="http://www.w3.org/2000/svg">
<path d="M33.26 14.0758H31.8042L28.0595 5.65105C27.8901 5.26988 27.6137 4.94603 27.2639 4.71875C26.9142 4.49146 26.506 4.37049 26.0888 4.37048H10.2368C9.81968 4.37049 9.41149 4.49146 9.06171 4.71875C8.71193 4.94603 8.43556 5.26988 8.2661 5.65105L4.52147 14.0758H3.06567C2.77967 14.0758 2.50538 14.1894 2.30315 14.3916C2.10092 14.5939 1.9873 14.8682 1.9873 15.1542C1.9873 15.4402 2.10092 15.7144 2.30315 15.9167C2.50538 16.1189 2.77967 16.2325 3.06567 16.2325H4.14404V27.0162C4.14404 27.5882 4.37127 28.1368 4.77573 28.5413C5.1802 28.9457 5.72877 29.1729 6.30078 29.1729H9.53588C10.1079 29.1729 10.6565 28.9457 11.0609 28.5413C11.4654 28.1368 11.6926 27.5882 11.6926 27.0162V25.9378H24.633V27.0162C24.633 27.5882 24.8603 28.1368 25.2647 28.5413C25.6692 28.9457 26.2178 29.1729 26.7898 29.1729H30.0249C30.5969 29.1729 31.1454 28.9457 31.5499 28.5413C31.9544 28.1368 32.1816 27.5882 32.1816 27.0162V16.2325H33.26C33.546 16.2325 33.8203 16.1189 34.0225 15.9167C34.2247 15.7144 34.3383 15.4402 34.3383 15.1542C34.3383 14.8682 34.2247 14.5939 34.0225 14.3916C33.8203 14.1894 33.546 14.0758 33.26 14.0758ZM11.6926 20.546H8.45751C8.17151 20.546 7.89722 20.4324 7.69499 20.2302C7.49276 20.0279 7.37914 19.7536 7.37914 19.4676C7.37914 19.1816 7.49276 18.9073 7.69499 18.7051C7.89722 18.5029 8.17151 18.3893 8.45751 18.3893H11.6926C11.9786 18.3893 12.2529 18.5029 12.4551 18.7051C12.6574 18.9073 12.771 19.1816 12.771 19.4676C12.771 19.7536 12.6574 20.0279 12.4551 20.2302C12.2529 20.4324 11.9786 20.546 11.6926 20.546ZM27.8681 20.546H24.633C24.347 20.546 24.0727 20.4324 23.8705 20.2302C23.6683 20.0279 23.5547 19.7536 23.5547 19.4676C23.5547 19.1816 23.6683 18.9073 23.8705 18.7051C24.0727 18.5029 24.347 18.3893 24.633 18.3893H27.8681C28.1541 18.3893 28.4284 18.5029 28.6307 18.7051C28.8329 18.9073 28.9465 19.1816 28.9465 19.4676C28.9465 19.7536 28.8329 20.0279 28.6307 20.2302C28.4284 20.4324 28.1541 20.546 27.8681 20.546ZM6.88175 14.0758L10.2368 6.52722H26.0888L29.4439 14.0758H6.88175Z" fill="#424E76"/>
</svg>
