<svg width="29" height="29" viewBox="0 0 29 29" fill="none" xmlns="http://www.w3.org/2000/svg">
<path d="M14.5 27.9062H2.3125C1.98927 27.9062 1.67927 27.7778 1.45071 27.5493C1.22215 27.3207 1.09375 27.0107 1.09375 26.6875V14.5C1.09375 14.1768 1.22215 13.8668 1.45071 13.6382C1.67927 13.4097 1.98927 13.2812 2.3125 13.2812H14.5M14.5 27.9062V13.2812M14.5 27.9062H26.6875C27.0107 27.9062 27.3207 27.7778 27.5493 27.5493C27.7778 27.3207 27.9062 27.0107 27.9062 26.6875V14.5C27.9062 14.1768 27.7778 13.8668 27.5493 13.6382C27.3207 13.4097 27.0107 13.2812 26.6875 13.2812H14.5M20.5937 14.5V19.375M15.7187 2.3125V7.1875M8.40625 14.5V19.375M5.96875 2.3125V13.2812H23.0312V2.3125C23.0312 1.98927 22.9028 1.67927 22.6743 1.45071C22.4457 1.22215 22.1357 1.09375 21.8125 1.09375H7.1875C6.86427 1.09375 6.55427 1.22215 6.32571 1.45071C6.09715 1.67927 5.96875 1.98927 5.96875 2.3125Z" stroke="#2C2C2C" stroke-width="2"/>
</svg>
