<svg width="17" height="17" viewBox="0 0 17 17" fill="none" xmlns="http://www.w3.org/2000/svg">
<path d="M13.1367 13.1367H3.45703V5.53123H13.1367M11.0625 0.691406V2.07421H5.53123V0.691406H4.14843V2.07421H3.45703C2.68957 2.07421 2.07422 2.68956 2.07422 3.45702V13.1367C2.07422 13.5034 2.21991 13.8551 2.47923 14.1145C2.73856 14.3738 3.09028 14.5195 3.45703 14.5195H13.1367C13.5034 14.5195 13.8551 14.3738 14.1145 14.1145C14.3738 13.8551 14.5195 13.5034 14.5195 13.1367V3.45702C14.5195 3.09028 14.3738 2.73855 14.1145 2.47923C13.8551 2.2199 13.5034 2.07421 13.1367 2.07421H12.4453V0.691406M11.7539 8.29684H8.29685V11.7539H11.7539V8.29684Z" fill="#6C6C6C"/>
</svg>
