<svg width="15" height="16" viewBox="0 0 15 16" fill="none" xmlns="http://www.w3.org/2000/svg">
<path d="M10.5625 2.375C10.7319 2.37491 10.8954 2.43738 11.0216 2.55042C11.1478 2.66345 11.2278 2.8191 11.2463 2.9875L11.25 3.0625V4.875H11.875C12.3533 4.87497 12.8134 5.0577 13.1614 5.3858C13.5094 5.7139 13.7188 6.16257 13.7469 6.64L13.75 6.75V11.125C13.7501 11.4404 13.631 11.7441 13.4166 11.9753C13.2021 12.2066 12.9082 12.3482 12.5938 12.3719L12.5 12.375H11.25V13.5625C11.2501 13.7319 11.1876 13.8954 11.0746 14.0216C10.9615 14.1478 10.8059 14.2278 10.6375 14.2463L10.5625 14.25H4.4375C4.26809 14.2501 4.10461 14.1876 3.97842 14.0746C3.85224 13.9615 3.77223 13.8059 3.75375 13.6375L3.75 13.5625V12.375H2.5C2.18464 12.3751 1.8809 12.256 1.64966 12.0416C1.41842 11.8271 1.27678 11.5332 1.25313 11.2188L1.25 11.125V6.75C1.24997 6.27174 1.4327 5.81155 1.7608 5.46359C2.0889 5.11562 2.53757 4.90618 3.015 4.87813L3.125 4.875H3.75V3.0625C3.74991 2.89309 3.81238 2.72961 3.92542 2.60342C4.03845 2.47724 4.1941 2.39723 4.3625 2.37875L4.4375 2.375H10.5625ZM10 10.5H5V13H10V10.5ZM11.875 6.125H3.125C2.97192 6.12502 2.82416 6.18122 2.70977 6.28295C2.59537 6.38467 2.52229 6.52484 2.50437 6.67688L2.5 6.75V11.125H3.75V9.9375C3.74991 9.76809 3.81238 9.60461 3.92542 9.47842C4.03845 9.35224 4.1941 9.27223 4.3625 9.25375L4.4375 9.25H10.5625C10.7319 9.24991 10.8954 9.31238 11.0216 9.42542C11.1478 9.53845 11.2278 9.6941 11.2463 9.8625L11.25 9.9375V11.125H12.5V6.75C12.5 6.58424 12.4342 6.42527 12.3169 6.30806C12.1997 6.19085 12.0408 6.125 11.875 6.125ZM10.625 6.75C10.7843 6.75018 10.9375 6.81117 11.0534 6.92053C11.1692 7.02989 11.2389 7.17935 11.2482 7.33837C11.2576 7.4974 11.2058 7.65399 11.1036 7.77614C11.0013 7.8983 10.8563 7.97681 10.6981 7.99563L10.625 8H9.375C9.2157 7.99982 9.06248 7.93883 8.94664 7.82947C8.83081 7.72011 8.7611 7.57065 8.75177 7.41163C8.74243 7.2526 8.79417 7.09601 8.89642 6.97386C8.99866 6.8517 9.14369 6.77319 9.30188 6.75437L9.375 6.75H10.625ZM10 3.625H5V4.875H10V3.625Z" fill="#2C2C2C"/>
</svg>
