<svg width="30" height="30" viewBox="0 0 30 30" fill="none" xmlns="http://www.w3.org/2000/svg">
<path d="M25.3668 17.125H19.8773C19.1496 17.1242 18.4513 17.4121 17.9356 17.9255C17.4198 18.4388 17.1287 19.1357 17.1261 19.8634V25.353C17.1257 25.7144 17.1966 26.0723 17.3348 26.4063C17.4729 26.7402 17.6755 27.0437 17.9311 27.2992C18.1866 27.5547 18.49 27.7574 18.824 27.8955C19.1579 28.0336 19.5159 28.1045 19.8773 28.1042H25.3668C26.0943 28.1012 26.7908 27.8099 27.3039 27.2942C27.8169 26.7785 28.1046 26.0804 28.1038 25.353V19.8634C28.1042 19.5039 28.0337 19.1478 27.8963 18.8156C27.7588 18.4833 27.5573 18.1815 27.303 17.9272C27.0488 17.673 26.7469 17.4714 26.4147 17.334C26.0825 17.1966 25.7264 17.126 25.3668 17.1264M10.1221 17.125H4.63251C3.90518 17.1291 3.20905 17.4209 2.69621 17.9367C2.18336 18.4525 1.8955 19.1502 1.89551 19.8776V25.3672C1.89514 25.7267 1.96568 26.0828 2.10309 26.415C2.24051 26.7472 2.4421 27.0491 2.69633 27.3034C2.95055 27.5576 3.25243 27.7592 3.58466 27.8966C3.9169 28.034 4.27298 28.1045 4.63251 28.1042H10.1221C10.8495 28.1049 11.5476 27.8173 12.0633 27.3042C12.579 26.7912 12.8703 26.0946 12.8733 25.3672V19.8776C12.8736 19.5162 12.8027 19.1583 12.6646 18.8243C12.5265 18.4904 12.3238 18.1869 12.0683 17.9314C11.8127 17.6758 11.5093 17.4732 11.1754 17.3351C10.8414 17.1969 10.4835 17.126 10.1221 17.1264M10.1221 1.89583H4.63251C4.27298 1.89546 3.9169 1.966 3.58466 2.10342C3.25243 2.24083 2.95055 2.44242 2.69633 2.69665C2.4421 2.95088 2.24051 3.25275 2.10309 3.58499C1.96568 3.91722 1.89514 4.2733 1.89551 4.63283V10.1224C1.89475 10.8499 2.18242 11.5479 2.69547 12.0636C3.20851 12.5793 3.90508 12.8706 4.63251 12.8736H10.1221C10.4835 12.874 10.8414 12.803 11.1754 12.6649C11.5093 12.5268 11.8127 12.3242 12.0683 12.0686C12.3238 11.8131 12.5265 11.5096 12.6646 11.1757C12.8027 10.8417 12.8736 10.4838 12.8733 10.1224V4.63283C12.8703 3.9054 12.579 3.20884 12.0633 2.69579C11.5476 2.18275 10.8495 1.89508 10.1221 1.89583ZM25.3668 1.89583H19.8773C19.1498 1.89508 18.4518 2.18275 17.9361 2.69579C17.4204 3.20884 17.1291 3.9054 17.1261 4.63283V10.1224C17.1265 10.852 17.4164 11.5515 17.9323 12.0674C18.4482 12.5832 19.1477 12.8732 19.8773 12.8736H25.3668C26.0943 12.8706 26.7908 12.5793 27.3039 12.0636C27.8169 11.5479 28.1046 10.8499 28.1038 10.1224V4.63283C28.1042 4.2733 28.0337 3.91722 27.8963 3.58499C27.7588 3.25275 27.5573 2.95088 27.303 2.69665C27.0488 2.44242 26.7469 2.24083 26.4147 2.10342C26.0825 1.966 25.7264 1.89546 25.3668 1.89583Z" stroke="#2C2C2C" stroke-width="2" stroke-linecap="round" stroke-linejoin="round"/>
</svg>
