<svg width="24" height="24" viewBox="0 0 24 24" fill="none" xmlns="http://www.w3.org/2000/svg">
<path d="M8.11111 15.8889H8.90278L14.3333 10.4583L13.5417 9.66667L8.11111 15.0972V15.8889ZM7 17V14.6389L14.3333 7.31944C14.4444 7.21759 14.5672 7.13889 14.7017 7.08333C14.8361 7.02778 14.9772 7 15.125 7C15.2728 7 15.4163 7.02778 15.5556 7.08333C15.6948 7.13889 15.8152 7.22222 15.9167 7.33333L16.6806 8.11111C16.7917 8.21296 16.8728 8.33333 16.9239 8.47222C16.975 8.61111 17.0004 8.75 17 8.88889C17 9.03704 16.9746 9.17833 16.9239 9.31278C16.8731 9.44722 16.792 9.56981 16.6806 9.68056L9.36111 17H7ZM13.9306 10.0694L13.5417 9.66667L14.3333 10.4583L13.9306 10.0694Z" fill="#FDFDFD"/>
</svg>
