<svg width="21" height="21" viewBox="0 0 21 21" fill="none" xmlns="http://www.w3.org/2000/svg">
<path fill-rule="evenodd" clip-rule="evenodd" d="M3.97698 2.58561C3.79038 2.41173 3.54356 2.31706 3.28854 2.32156C3.03352 2.32606 2.79021 2.42937 2.60985 2.60973C2.4295 2.79008 2.32619 3.0334 2.32169 3.28842C2.31719 3.54344 2.41185 3.79025 2.58573 3.97686L3.6751 5.06623C2.37332 6.13168 1.33941 7.48744 0.656355 9.02473L0.315105 9.79254C0.21616 10.0155 0.165039 10.2567 0.165039 10.5006C0.165039 10.7446 0.21616 10.9858 0.315105 11.2087L0.656355 11.9765C1.26134 13.3366 2.14156 14.5565 3.24149 15.5595C4.34142 16.5624 5.63722 17.3266 7.04719 17.8038C8.45715 18.281 9.9507 18.461 11.4337 18.3322C12.9166 18.2035 14.3568 17.7689 15.6635 17.0559L17.0232 18.4144C17.1133 18.5111 17.222 18.5886 17.3428 18.6424C17.4635 18.6962 17.5939 18.7252 17.726 18.7275C17.8582 18.7298 17.9895 18.7055 18.1121 18.656C18.2346 18.6065 18.346 18.5328 18.4395 18.4393C18.5329 18.3459 18.6066 18.2345 18.6561 18.112C18.7056 17.9894 18.73 17.8581 18.7276 17.7259C18.7253 17.5937 18.6964 17.4634 18.6426 17.3427C18.5888 17.2219 18.5112 17.1132 18.4145 17.0231L3.97698 2.58561ZM14.1987 15.5899L12.5004 13.8928C11.7482 14.3373 10.8697 14.519 10.003 14.4093C9.13627 14.2997 8.33064 13.9049 7.7129 13.2872C7.09516 12.6695 6.7004 11.8638 6.59076 10.9971C6.48112 10.1304 6.66284 9.25184 7.10729 8.49973L5.07423 6.46667C3.93893 7.35462 3.03929 8.50802 2.45448 9.82536L2.15392 10.5L2.45579 11.1759C2.93026 12.2425 3.61203 13.204 4.46146 14.0047C5.31088 14.8054 6.311 15.4293 7.40368 15.84C8.49636 16.2507 9.65979 16.4401 10.8263 16.3972C11.9929 16.3542 13.1392 16.0798 14.1987 15.5899ZM8.59698 9.98942C8.50764 10.3236 8.50778 10.6753 8.59739 11.0094C8.68699 11.3434 8.86291 11.648 9.10748 11.8926C9.35205 12.1372 9.65666 12.3131 9.99072 12.4027C10.3248 12.4923 10.6765 12.4924 11.0107 12.4031L8.59698 9.98942ZM10.7731 6.57167L14.4271 10.2257C14.361 9.27837 13.9548 8.38686 13.2834 7.71539C12.6119 7.04393 11.7204 6.63774 10.7731 6.57167ZM18.5431 11.1759C18.2305 11.8802 17.8268 12.5404 17.3422 13.1394L18.74 14.5385C19.3925 13.7642 19.9324 12.9017 20.3439 11.9765L20.6851 11.2087C20.7842 10.9856 20.8355 10.7441 20.8355 10.5C20.8355 10.2558 20.7842 10.0144 20.6851 9.79123L20.3439 9.02473C19.2719 6.61518 17.3535 4.68239 14.952 3.59244C12.5506 2.50249 9.83275 2.33105 7.31335 3.11061L8.93823 4.73811C10.8781 4.38882 12.8791 4.70039 14.6209 5.62294C16.3627 6.5455 17.7447 8.0257 18.5457 9.82667L18.845 10.5013L18.5431 11.1759Z" fill="#8F8F8F"/>
</svg>
