<svg width="23" height="23" viewBox="0 0 23 23" fill="none" xmlns="http://www.w3.org/2000/svg">
<path d="M1.97592 11.8335C1.89605 11.6183 1.89605 11.3816 1.97592 11.1665C2.7538 9.28034 4.0742 7.66764 5.76974 6.53284C7.46527 5.39804 9.45958 4.79224 11.4998 4.79224C13.5401 4.79224 15.5344 5.39804 17.2299 6.53284C18.9255 7.66764 20.2459 9.28034 21.0237 11.1665C21.1036 11.3816 21.1036 11.6183 21.0237 11.8335C20.2459 13.7196 18.9255 15.3323 17.2299 16.4671C15.5344 17.6019 13.5401 18.2077 11.4998 18.2077C9.45958 18.2077 7.46527 17.6019 5.76974 16.4671C4.0742 15.3323 2.7538 13.7196 1.97592 11.8335Z" stroke="#8F8F8F" stroke-width="2" stroke-linecap="round" stroke-linejoin="round"/>
<path d="M11.5 14.375C13.0878 14.375 14.375 13.0878 14.375 11.5C14.375 9.91218 13.0878 8.625 11.5 8.625C9.91218 8.625 8.625 9.91218 8.625 11.5C8.625 13.0878 9.91218 14.375 11.5 14.375Z" stroke="#8F8F8F" stroke-width="2" stroke-linecap="round" stroke-linejoin="round"/>
</svg>
