<svg width="1600" height="256" viewBox="0 0 1600 256" fill="none" xmlns="http://www.w3.org/2000/svg">
<path d="M-6 30C-6 13.4315 7.43146 0 24 0H1574C1590.57 0 1604 13.4315 1604 30V256H-6V30Z" fill="#FFD15B"/>
<circle cx="-0.757333" cy="187.748" r="7.16308" fill="#AE9555"/>
<circle cx="17.7822" cy="187.748" r="7.16308" fill="#AE9555"/>
<circle cx="36.3218" cy="187.748" r="7.16308" fill="#AE9555"/>
<circle cx="54.8618" cy="187.748" r="7.16308" fill="#AE9555"/>
<circle cx="73.7978" cy="187.748" r="7.16308" fill="#AE9555"/>
<circle cx="92.7344" cy="187.748" r="7.16308" fill="#AE9555"/>
<circle cx="-0.757333" cy="165.352" r="7.16308" fill="#AE9555"/>
<circle cx="17.7822" cy="165.352" r="7.16308" fill="#AE9555"/>
<circle cx="36.3218" cy="165.352" r="7.16308" fill="#AE9555"/>
<circle cx="54.8618" cy="165.352" r="7.16308" fill="#AE9555"/>
<circle cx="73.7978" cy="165.352" r="7.16308" fill="#AE9555"/>
<circle cx="92.7344" cy="165.352" r="7.16308" fill="#AE9555"/>
<circle cx="-0.757333" cy="142.956" r="7.16308" fill="#AE9555"/>
<circle cx="17.7822" cy="142.956" r="7.16308" fill="#AE9555"/>
<circle cx="36.3218" cy="142.956" r="7.16308" fill="#AE9555"/>
<circle cx="54.8618" cy="142.956" r="7.16308" fill="#AE9555"/>
<circle cx="73.7978" cy="142.956" r="7.16308" fill="#AE9555"/>
<circle cx="92.7344" cy="142.956" r="7.16308" fill="#AE9555"/>
<circle cx="-0.757333" cy="120.559" r="7.16308" fill="#AE9555"/>
<circle cx="17.7822" cy="120.559" r="7.16308" fill="#AE9555"/>
<circle cx="36.3218" cy="120.559" r="7.16308" fill="#AE9555"/>
<circle cx="54.8618" cy="120.559" r="7.16308" fill="#AE9555"/>
<circle cx="73.7978" cy="120.559" r="7.16308" fill="#AE9555"/>
<circle cx="92.7344" cy="120.559" r="7.16308" fill="#AE9555"/>
<circle cx="-0.757333" cy="98.1631" r="7.16308" fill="#AE9555"/>
<circle cx="17.7822" cy="98.1631" r="7.16308" fill="#AE9555"/>
<circle cx="36.3218" cy="98.1631" r="7.16308" fill="#AE9555"/>
<circle cx="54.8618" cy="98.1631" r="7.16308" fill="#AE9555"/>
<circle cx="73.7978" cy="98.1631" r="7.16308" fill="#AE9555"/>
<circle cx="92.7344" cy="98.1631" r="7.16308" fill="#AE9555"/>
<circle cx="1489.16" cy="170.541" r="7.16308" fill="#AE9554"/>
<circle cx="1507.7" cy="170.541" r="7.16308" fill="#AE9554"/>
<circle cx="1526.24" cy="170.541" r="7.16308" fill="#AE9554"/>
<circle cx="1544.78" cy="170.541" r="7.16308" fill="#AE9554"/>
<circle cx="1563.32" cy="170.541" r="7.16308" fill="#AE9554"/>
<circle cx="1581.86" cy="170.541" r="7.16308" fill="#AE9554"/>
<circle cx="1600.8" cy="170.541" r="7.16308" fill="#AE9554"/>
<circle cx="1489.16" cy="148.145" r="7.16308" fill="#AE9554"/>
<circle cx="1507.7" cy="148.145" r="7.16308" fill="#AE9554"/>
<circle cx="1526.24" cy="148.145" r="7.16308" fill="#AE9554"/>
<circle cx="1544.78" cy="148.145" r="7.16308" fill="#AE9554"/>
<circle cx="1563.32" cy="148.145" r="7.16308" fill="#AE9554"/>
<circle cx="1581.86" cy="148.145" r="7.16308" fill="#AE9554"/>
<circle cx="1600.8" cy="148.145" r="7.16308" fill="#AE9554"/>
<circle cx="1489.16" cy="125.748" r="7.16308" fill="#AE9554"/>
<circle cx="1507.7" cy="125.748" r="7.16308" fill="#AE9554"/>
<circle cx="1526.24" cy="125.748" r="7.16308" fill="#AE9554"/>
<circle cx="1544.78" cy="125.748" r="7.16308" fill="#AE9554"/>
<circle cx="1563.32" cy="125.748" r="7.16308" fill="#AE9554"/>
<circle cx="1581.86" cy="125.748" r="7.16308" fill="#AE9554"/>
<circle cx="1600.8" cy="125.748" r="7.16308" fill="#AE9554"/>
<circle cx="1489.16" cy="103.352" r="7.16308" fill="#AE9554"/>
<circle cx="1507.7" cy="103.352" r="7.16308" fill="#AE9554"/>
<circle cx="1526.24" cy="103.352" r="7.16308" fill="#AE9554"/>
<circle cx="1544.78" cy="103.352" r="7.16308" fill="#AE9554"/>
<circle cx="1563.32" cy="103.352" r="7.16308" fill="#AE9554"/>
<circle cx="1581.86" cy="103.352" r="7.16308" fill="#AE9554"/>
<circle cx="1600.8" cy="103.352" r="7.16308" fill="#AE9554"/>
<circle cx="1489.16" cy="80.9556" r="7.16308" fill="#AE9554"/>
<circle cx="1507.7" cy="80.9556" r="7.16308" fill="#AE9554"/>
<circle cx="1526.24" cy="80.9556" r="7.16308" fill="#AE9554"/>
<circle cx="1544.78" cy="80.9556" r="7.16308" fill="#AE9554"/>
<circle cx="1563.32" cy="80.9556" r="7.16308" fill="#AE9554"/>
<circle cx="1581.86" cy="80.9556" r="7.16308" fill="#AE9554"/>
<circle cx="1600.8" cy="80.9556" r="7.16308" fill="#AE9554"/>
<circle cx="1489.16" cy="58.5596" r="7.16308" fill="#AE9554"/>
<circle cx="1507.7" cy="58.5596" r="7.16308" fill="#AE9554"/>
<circle cx="1526.24" cy="58.5596" r="7.16308" fill="#AE9554"/>
<circle cx="1544.78" cy="58.5596" r="7.16308" fill="#AE9554"/>
<circle cx="1563.32" cy="58.5596" r="7.16308" fill="#AE9554"/>
<circle cx="1581.86" cy="58.5596" r="7.16308" fill="#AE9554"/>
<circle cx="1600.8" cy="58.5596" r="7.16308" fill="#AE9554"/>
<path d="M733.823 86.376H750.623V95.592H733.823V112.488H724.607V95.592H707.711V86.376H724.607V69.48H733.823V86.376ZM781.592 118.536C779.288 118.536 776.952 118.184 774.584 117.48C772.216 116.776 769.976 115.72 767.864 114.312C765.816 112.84 763.992 110.984 762.392 108.744C760.792 106.504 759.608 103.848 758.84 100.776L768.44 96.936C769.272 100.328 770.776 103.112 772.952 105.288C775.192 107.4 778.04 108.456 781.496 108.456C783.224 108.456 784.856 108.168 786.392 107.592C787.928 106.952 789.24 106.12 790.328 105.096C791.416 104.008 792.28 102.728 792.92 101.256C793.56 99.784 793.88 98.152 793.88 96.36C793.88 94.568 793.56 92.936 792.92 91.464C792.344 89.928 791.512 88.616 790.424 87.528C789.336 86.44 788.024 85.608 786.488 85.032C784.952 84.392 783.288 84.072 781.496 84.072C779.384 84.072 777.464 84.552 775.736 85.512C774.008 86.408 772.568 87.592 771.416 89.064L760.856 84.36L764.792 51.336H800.6V61.032H773.72L771.32 78.12L771.896 78.312C773.304 77.224 774.936 76.296 776.792 75.528C778.648 74.76 780.92 74.376 783.608 74.376C786.36 74.376 788.984 74.92 791.48 76.008C794.04 77.032 796.28 78.504 798.2 80.424C800.12 82.344 801.656 84.648 802.808 87.336C803.96 90.024 804.536 93 804.536 96.264C804.536 99.464 803.96 102.44 802.808 105.192C801.656 107.88 800.056 110.216 798.008 112.2C795.96 114.184 793.528 115.752 790.712 116.904C787.96 117.992 784.92 118.536 781.592 118.536ZM839.427 118.536C835.267 118.536 831.523 117.672 828.195 115.944C824.931 114.152 822.115 111.72 819.747 108.648C817.379 105.512 815.555 101.864 814.275 97.704C813.059 93.48 812.451 88.968 812.451 84.168C812.451 79.368 813.059 74.888 814.275 70.728C815.555 66.504 817.379 62.856 819.747 59.784C822.115 56.648 824.931 54.216 828.195 52.488C831.523 50.696 835.267 49.8 839.427 49.8C843.523 49.8 847.235 50.696 850.563 52.488C853.891 54.216 856.707 56.648 859.011 59.784C861.379 62.856 863.203 66.504 864.483 70.728C865.763 74.888 866.403 79.368 866.403 84.168C866.403 88.968 865.763 93.48 864.483 97.704C863.203 101.864 861.379 105.512 859.011 108.648C856.707 111.72 853.891 114.152 850.563 115.944C847.235 117.672 843.523 118.536 839.427 118.536ZM839.427 108.456C841.923 108.456 844.163 107.848 846.147 106.632C848.195 105.352 849.891 103.624 851.235 101.448C852.643 99.272 853.699 96.712 854.403 93.768C855.171 90.76 855.555 87.56 855.555 84.168C855.555 80.712 855.171 77.512 854.403 74.568C853.699 71.624 852.643 69.064 851.235 66.888C849.891 64.712 848.195 63.016 846.147 61.8C844.163 60.52 841.923 59.88 839.427 59.88C836.931 59.88 834.659 60.52 832.611 61.8C830.627 63.016 828.931 64.712 827.523 66.888C826.179 69.064 825.123 71.624 824.355 74.568C823.651 77.512 823.299 80.712 823.299 84.168C823.299 87.56 823.651 90.76 824.355 93.768C825.123 96.712 826.179 99.272 827.523 101.448C828.931 103.624 830.627 105.352 832.611 106.632C834.659 107.848 836.931 108.456 839.427 108.456Z" fill="#765B15"/>
<path d="M638.428 168.512C635.89 168.512 633.842 167.68 632.284 166.016C630.727 164.373 629.948 162.197 629.948 159.488V145.088H632.892V159.616C632.892 161.493 633.383 162.976 634.364 164.064C635.346 165.152 636.7 165.696 638.428 165.696C640.156 165.696 641.511 165.152 642.492 164.064C643.474 162.976 643.964 161.493 643.964 159.616V145.088H646.908V159.488C646.908 162.261 646.14 164.459 644.604 166.08C643.068 167.701 641.01 168.512 638.428 168.512ZM650.48 152.32H653.296V154.496H653.424C653.872 153.728 654.554 153.088 655.472 152.576C656.41 152.064 657.381 151.808 658.384 151.808C660.304 151.808 661.776 152.363 662.8 153.472C663.845 154.56 664.368 156.117 664.368 158.144V168H661.424V158.336C661.36 155.776 660.069 154.496 657.552 154.496C656.378 154.496 655.397 154.976 654.608 155.936C653.818 156.875 653.424 158.005 653.424 159.328V168H650.48V152.32ZM671.631 146.912C671.631 147.488 671.429 147.979 671.023 148.384C670.618 148.789 670.127 148.992 669.551 148.992C668.975 148.992 668.485 148.789 668.079 148.384C667.674 147.979 667.471 147.488 667.471 146.912C667.471 146.336 667.674 145.845 668.079 145.44C668.485 145.035 668.975 144.832 669.551 144.832C670.127 144.832 670.618 145.035 671.023 145.44C671.429 145.845 671.631 146.336 671.631 146.912ZM671.023 152.32V168H668.079V152.32H671.023ZM680.906 168.256C679.626 168.256 678.56 167.861 677.706 167.072C676.874 166.283 676.448 165.184 676.426 163.776V155.008H673.674V152.32H676.426V147.52H679.37V152.32H683.21V155.008H679.37V162.816C679.37 163.861 679.573 164.576 679.978 164.96C680.384 165.323 680.842 165.504 681.354 165.504C681.589 165.504 681.813 165.483 682.026 165.44C682.261 165.376 682.474 165.301 682.666 165.216L683.594 167.84C682.826 168.117 681.93 168.256 680.906 168.256ZM695.986 168H693.042V152.32H695.858V154.496H695.986C696.434 153.728 697.117 153.088 698.034 152.576C698.973 152.064 699.901 151.808 700.818 151.808C701.97 151.808 702.983 152.075 703.858 152.608C704.733 153.141 705.373 153.877 705.778 154.816C707.079 152.811 708.882 151.808 711.186 151.808C712.999 151.808 714.397 152.363 715.378 153.472C716.359 154.581 716.85 156.16 716.85 158.208V168H713.906V158.656C713.906 157.184 713.639 156.128 713.106 155.488C712.573 154.827 711.677 154.496 710.418 154.496C709.287 154.496 708.338 154.976 707.57 155.936C706.802 156.896 706.418 158.027 706.418 159.328V168H703.474V158.656C703.474 157.184 703.207 156.128 702.674 155.488C702.141 154.827 701.245 154.496 699.986 154.496C698.855 154.496 697.906 154.976 697.138 155.936C696.37 156.896 695.986 158.027 695.986 159.328V168ZM719.396 160.16C719.396 157.749 720.153 155.755 721.668 154.176C723.204 152.597 725.135 151.808 727.46 151.808C729.785 151.808 731.705 152.597 733.22 154.176C734.756 155.755 735.524 157.749 735.524 160.16C735.524 162.592 734.756 164.587 733.22 166.144C731.705 167.723 729.785 168.512 727.46 168.512C725.135 168.512 723.204 167.723 721.668 166.144C720.153 164.565 719.396 162.571 719.396 160.16ZM722.34 160.16C722.34 161.845 722.831 163.211 723.812 164.256C724.793 165.301 726.009 165.824 727.46 165.824C728.911 165.824 730.127 165.301 731.108 164.256C732.089 163.211 732.58 161.845 732.58 160.16C732.58 158.496 732.089 157.141 731.108 156.096C730.105 155.029 728.889 154.496 727.46 154.496C726.031 154.496 724.815 155.029 723.812 156.096C722.831 157.141 722.34 158.496 722.34 160.16ZM746.33 168.512C745.178 168.512 744.122 168.267 743.162 167.776C742.223 167.285 741.498 166.635 740.986 165.824H740.858V168H738.042V145.088H740.986V152.32L740.858 154.496H740.986C741.498 153.685 742.223 153.035 743.162 152.544C744.122 152.053 745.178 151.808 746.33 151.808C748.399 151.808 750.149 152.619 751.578 154.24C753.05 155.883 753.786 157.856 753.786 160.16C753.786 162.485 753.05 164.459 751.578 166.08C750.149 167.701 748.399 168.512 746.33 168.512ZM745.85 165.824C747.258 165.824 748.442 165.291 749.402 164.224C750.362 163.179 750.842 161.824 750.842 160.16C750.842 158.517 750.362 157.163 749.402 156.096C748.442 155.029 747.258 154.496 745.85 154.496C744.421 154.496 743.226 155.029 742.266 156.096C741.327 157.163 740.858 158.517 740.858 160.16C740.858 161.824 741.327 163.189 742.266 164.256C743.226 165.301 744.421 165.824 745.85 165.824ZM760.131 146.912C760.131 147.488 759.929 147.979 759.523 148.384C759.118 148.789 758.627 148.992 758.051 148.992C757.475 148.992 756.985 148.789 756.579 148.384C756.174 147.979 755.971 147.488 755.971 146.912C755.971 146.336 756.174 145.845 756.579 145.44C756.985 145.035 757.475 144.832 758.051 144.832C758.627 144.832 759.118 145.035 759.523 145.44C759.929 145.845 760.131 146.336 760.131 146.912ZM759.523 152.32V168H756.579V152.32H759.523ZM766.299 145.088V168H763.355V145.088H766.299ZM783.125 168.256C781.845 168.256 780.778 167.861 779.925 167.072C779.093 166.283 778.666 165.184 778.645 163.776V155.008H775.893V152.32H778.645V147.52H781.589V152.32H785.429V155.008H781.589V162.816C781.589 163.861 781.792 164.576 782.197 164.96C782.602 165.323 783.061 165.504 783.573 165.504C783.808 165.504 784.032 165.483 784.245 165.44C784.48 165.376 784.693 165.301 784.885 165.216L785.813 167.84C785.045 168.117 784.149 168.256 783.125 168.256ZM795.113 168.512C792.809 168.512 790.911 167.723 789.417 166.144C787.924 164.565 787.177 162.571 787.177 160.16C787.177 157.771 787.903 155.787 789.353 154.208C790.804 152.608 792.66 151.808 794.921 151.808C797.247 151.808 799.092 152.565 800.457 154.08C801.844 155.573 802.537 157.675 802.537 160.384L802.505 160.704H790.185C790.228 162.24 790.74 163.477 791.721 164.416C792.703 165.355 793.876 165.824 795.241 165.824C797.119 165.824 798.591 164.885 799.657 163.008L802.281 164.288C801.577 165.611 800.596 166.645 799.337 167.392C798.1 168.139 796.692 168.512 795.113 168.512ZM790.409 158.272H799.401C799.316 157.184 798.868 156.288 798.057 155.584C797.268 154.859 796.201 154.496 794.857 154.496C793.748 154.496 792.788 154.837 791.977 155.52C791.188 156.203 790.665 157.12 790.409 158.272ZM808.174 168H805.23V152.32H808.046V154.88H808.174C808.472 154.048 809.08 153.344 809.998 152.768C810.936 152.171 811.854 151.872 812.75 151.872C813.603 151.872 814.328 152 814.926 152.256L814.03 155.104C813.667 154.955 813.091 154.88 812.302 154.88C811.192 154.88 810.222 155.328 809.39 156.224C808.579 157.12 808.174 158.165 808.174 159.36V168ZM820.663 146.912C820.663 147.488 820.46 147.979 820.055 148.384C819.649 148.789 819.159 148.992 818.583 148.992C818.007 148.992 817.516 148.789 817.111 148.384C816.705 147.979 816.503 147.488 816.503 146.912C816.503 146.336 816.705 145.845 817.111 145.44C817.516 145.035 818.007 144.832 818.583 144.832C819.159 144.832 819.649 145.035 820.055 145.44C820.46 145.845 820.663 146.336 820.663 146.912ZM815.351 175.232C814.71 175.232 814.134 175.125 813.622 174.912L814.39 172.352C814.732 172.48 815.02 172.544 815.255 172.544C816.449 172.544 817.068 171.808 817.111 170.336V152.32H820.055V169.888C820.055 173.451 818.487 175.232 815.351 175.232ZM837.646 168H834.83V165.824H834.702C834.254 166.592 833.56 167.232 832.622 167.744C831.704 168.256 830.744 168.512 829.742 168.512C827.822 168.512 826.339 167.968 825.294 166.88C824.27 165.771 823.758 164.203 823.758 162.176V152.32H826.702V161.984C826.766 164.544 828.056 165.824 830.574 165.824C831.747 165.824 832.728 165.355 833.518 164.416C834.307 163.456 834.702 162.315 834.702 160.992V152.32H837.646V168ZM843.217 163.2C843.217 163.968 843.537 164.608 844.177 165.12C844.839 165.632 845.607 165.888 846.481 165.888C847.719 165.888 848.817 165.429 849.777 164.512C850.759 163.595 851.249 162.517 851.249 161.28C850.332 160.555 849.052 160.192 847.409 160.192C846.215 160.192 845.212 160.48 844.401 161.056C843.612 161.632 843.217 162.347 843.217 163.2ZM847.025 151.808C849.201 151.808 850.919 152.395 852.177 153.568C853.436 154.72 854.065 156.309 854.065 158.336V168H851.249V165.824H851.121C849.905 167.616 848.284 168.512 846.257 168.512C844.529 168.512 843.079 168 841.905 166.976C840.753 165.952 840.177 164.672 840.177 163.136C840.177 161.515 840.785 160.224 842.001 159.264C843.239 158.304 844.881 157.824 846.929 157.824C848.679 157.824 850.119 158.144 851.249 158.784V158.112C851.249 157.088 850.844 156.224 850.033 155.52C849.223 154.795 848.273 154.432 847.185 154.432C845.543 154.432 844.241 155.125 843.281 156.512L840.689 154.88C842.119 152.832 844.231 151.808 847.025 151.808ZM860.33 145.088V168H857.386V145.088H860.33ZM877.988 165.824C879.439 165.824 880.623 165.301 881.54 164.256C882.5 163.211 882.98 161.845 882.98 160.16C882.98 158.517 882.5 157.163 881.54 156.096C880.602 155.029 879.418 154.496 877.988 154.496C876.58 154.496 875.396 155.029 874.436 156.096C873.476 157.163 872.996 158.517 872.996 160.16C872.996 161.824 873.476 163.179 874.436 164.224C875.396 165.291 876.58 165.824 877.988 165.824ZM877.508 168.512C875.46 168.512 873.7 167.701 872.228 166.08C870.778 164.437 870.052 162.464 870.052 160.16C870.052 157.856 870.778 155.883 872.228 154.24C873.7 152.619 875.46 151.808 877.508 151.808C878.66 151.808 879.706 152.053 880.644 152.544C881.604 153.035 882.34 153.685 882.852 154.496H882.98L882.852 152.32V145.088H885.796V168H882.98V165.824H882.852C882.34 166.635 881.604 167.285 880.644 167.776C879.706 168.267 878.66 168.512 877.508 168.512ZM893.194 146.912C893.194 147.488 892.991 147.979 892.586 148.384C892.18 148.789 891.69 148.992 891.114 148.992C890.538 148.992 890.047 148.789 889.642 148.384C889.236 147.979 889.034 147.488 889.034 146.912C889.034 146.336 889.236 145.845 889.642 145.44C890.047 145.035 890.538 144.832 891.114 144.832C891.69 144.832 892.18 145.035 892.586 145.44C892.991 145.845 893.194 146.336 893.194 146.912ZM892.586 152.32V168H889.642V152.32H892.586ZM916.888 165.184V168H902.936V165.056L908.6 159.328C910.499 157.387 911.811 155.936 912.536 154.976C913.262 153.995 913.624 152.971 913.624 151.904C913.624 150.944 913.251 150.123 912.504 149.44C911.758 148.757 910.798 148.416 909.624 148.416C908.622 148.416 907.758 148.715 907.032 149.312C906.307 149.909 905.838 150.635 905.624 151.488L902.936 150.4C903.363 149.056 904.184 147.925 905.4 147.008C906.616 146.069 908.046 145.6 909.688 145.6C911.672 145.6 913.326 146.208 914.648 147.424C915.971 148.64 916.632 150.133 916.632 151.904C916.632 154.016 915.47 156.299 913.144 158.752L906.744 165.184H916.888ZM919.689 157.056C919.689 153.728 920.511 150.987 922.153 148.832C923.796 146.677 925.908 145.6 928.489 145.6C931.071 145.6 933.183 146.688 934.825 148.864C936.468 151.019 937.289 153.749 937.289 157.056C937.289 160.341 936.468 163.083 934.825 165.28C933.183 167.435 931.071 168.512 928.489 168.512C925.908 168.512 923.796 167.435 922.153 165.28C920.511 163.083 919.689 160.341 919.689 157.056ZM934.281 157.056C934.281 154.539 933.748 152.469 932.681 150.848C931.636 149.227 930.239 148.416 928.489 148.416C926.74 148.416 925.343 149.227 924.297 150.848C923.231 152.469 922.697 154.539 922.697 157.056C922.697 159.573 923.231 161.653 924.297 163.296C925.343 164.896 926.74 165.696 928.489 165.696C930.239 165.696 931.636 164.885 932.681 163.264C933.748 161.621 934.281 159.552 934.281 157.056ZM953.607 165.184V168H939.655V165.056L945.319 159.328C947.218 157.387 948.53 155.936 949.255 154.976C949.98 153.995 950.343 152.971 950.343 151.904C950.343 150.944 949.97 150.123 949.223 149.44C948.476 148.757 947.516 148.416 946.343 148.416C945.34 148.416 944.476 148.715 943.751 149.312C943.026 149.909 942.556 150.635 942.343 151.488L939.655 150.4C940.082 149.056 940.903 147.925 942.119 147.008C943.335 146.069 944.764 145.6 946.407 145.6C948.391 145.6 950.044 146.208 951.367 147.424C952.69 148.64 953.351 150.133 953.351 151.904C953.351 154.016 952.188 156.299 949.863 158.752L943.463 165.184H953.607ZM969.624 163.392V168H966.68V163.392H956.28V161.152L966.424 146.112H969.624V160.64H972.44V163.392H969.624ZM959.608 160.64H966.68V150.432H966.552L959.608 160.64Z" fill="#765B15"/>
</svg>
