<svg width="165" height="82" viewBox="0 0 165 82" fill="none" xmlns="http://www.w3.org/2000/svg">
<path d="M79.415 76.544H78.775C78.0497 77.7813 76.919 78.848 75.383 79.744C73.8897 80.5973 71.991 81.024 69.687 81.024C67.6817 81.024 65.7617 80.6187 63.927 79.808C62.0923 78.9973 60.471 77.8667 59.063 76.416C57.6977 74.9227 56.6097 73.152 55.799 71.104C54.9883 69.056 54.583 66.7947 54.583 64.32C54.583 61.8453 54.9883 59.584 55.799 57.536C56.6097 55.488 57.6977 53.7387 59.063 52.288C60.471 50.7947 62.0923 49.6427 63.927 48.832C65.7617 48.0213 67.6817 47.616 69.687 47.616C71.991 47.616 73.8897 48.064 75.383 48.96C76.919 49.8133 78.0497 50.8587 78.775 52.096H79.415L78.775 47.616V36.5L88.375 33.5V80H79.415V76.544ZM71.799 72.064C72.823 72.064 73.783 71.8933 74.679 71.552C75.6177 71.168 76.4283 70.656 77.111 70.016C77.8363 69.3333 78.391 68.5227 78.775 67.584C79.2017 66.6027 79.415 65.5147 79.415 64.32C79.415 63.1253 79.2017 62.0587 78.775 61.12C78.391 60.1813 77.8363 59.3707 77.111 58.688C76.4283 58.0053 75.6177 57.4933 74.679 57.152C73.783 56.768 72.823 56.576 71.799 56.576C70.775 56.576 69.7937 56.768 68.855 57.152C67.959 57.4933 67.1483 58.0053 66.423 58.688C65.7403 59.3707 65.1857 60.1813 64.759 61.12C64.375 62.0587 64.183 63.1253 64.183 64.32C64.183 65.5147 64.375 66.6027 64.759 67.584C65.1857 68.5227 65.7403 69.3333 66.423 70.016C67.1483 70.656 67.959 71.168 68.855 71.552C69.7937 71.8933 70.775 72.064 71.799 72.064Z" fill="#0063FE"/>
<path d="M44.1869 45.184C43.3336 45.184 42.5442 45.0346 41.8189 44.736C41.0936 44.3946 40.4536 43.968 39.8989 43.456C39.3869 42.9013 38.9602 42.2613 38.6189 41.536C38.3202 40.8106 38.1709 40.0213 38.1709 39.168C38.1709 38.3573 38.3202 37.5893 38.6189 36.864C38.9602 36.096 39.3869 35.456 39.8989 34.944C40.4536 34.3893 41.0936 33.9626 41.8189 33.664C42.5442 33.3226 43.3336 33.152 44.1869 33.152C44.9976 33.152 45.7656 33.3226 46.4909 33.664C47.2589 33.9626 47.8989 34.3893 48.4109 34.944C48.9656 35.456 49.3922 36.096 49.6909 36.864C50.0322 37.5893 50.2029 38.3573 50.2029 39.168C50.2029 40.0213 50.0322 40.8106 49.6909 41.536C49.3922 42.2613 48.9656 42.9013 48.4109 43.456C47.8989 43.968 47.2589 44.3946 46.4909 44.736C45.7656 45.0346 44.9976 45.184 44.1869 45.184ZM39.3869 80V48.64H48.9869V80H39.3869Z" fill="#0063FE"/>
<path d="M8.96 80H0V34.176H9.40596V40.9125V47.646L8.96 52.096H9.6C10.3253 50.8587 11.4347 49.8134 12.928 48.96C14.464 48.064 16.384 47.616 18.688 47.616C20.6933 47.616 22.6133 48.0214 24.448 48.832C26.2827 49.6427 27.8827 50.7947 29.248 52.288C30.656 53.7387 31.7653 55.488 32.576 57.536C33.3867 59.584 33.792 61.8454 33.792 64.32C33.792 66.7947 33.3867 69.056 32.576 71.104C31.7653 73.152 30.656 74.9227 29.248 76.416C27.8827 77.8667 26.2827 78.9974 24.448 79.808C22.6133 80.6187 20.6933 81.024 18.688 81.024C16.384 81.024 14.464 80.5974 12.928 79.744C11.4347 78.848 10.3253 77.7814 9.6 76.544H8.96V80ZM16.576 72.064C17.6 72.064 18.56 71.8934 19.456 71.552C20.3947 71.168 21.2053 70.656 21.888 70.016C22.6133 69.3334 23.168 68.5227 23.552 67.584C23.9787 66.6027 24.192 65.5147 24.192 64.32C24.192 63.1254 23.9787 62.0587 23.552 61.12C23.168 60.1814 22.6133 59.3707 21.888 58.688C21.2053 58.0054 20.3947 57.4934 19.456 57.152C18.56 56.768 17.6 56.576 16.576 56.576C15.552 56.576 14.5707 56.768 13.632 57.152C12.736 57.4934 11.9253 58.0054 11.2 58.688C10.5173 59.3707 9.96267 60.1814 9.536 61.12C9.152 62.0587 8.96 63.1254 8.96 64.32C8.96 65.5147 9.152 66.6027 9.536 67.584C9.96267 68.5227 10.5173 69.3334 11.2 70.016C11.9253 70.656 12.736 71.168 13.632 71.552C14.5707 71.8934 15.552 72.064 16.576 72.064Z" fill="#0063FE"/>
<path d="M160.285 75.4V52.2504C159.785 31.7504 143.785 29.0949 122.285 29.0949L110.285 8.59486C100.285 4.09489 66.7852 3.51723 58.7852 8.59487C52.2529 12.7409 44.6973 23.5 44.6973 23.5H4.69727V35" stroke="#0063FE" stroke-width="9.4" stroke-linecap="square"/>
<path d="M163.785 71.5V79.6045H140.785V71.5H163.785Z" fill="#0063FE" stroke="#0063FE"/>
<path d="M140.785 80.0949C140.785 70.4299 133.45 61.5 123.785 61.5C114.12 61.5 106.197 66.335 106.197 76H87.1973" stroke="#0063FE" stroke-width="8"/>
<path d="M9.3796 47H0.0131836V19L9.3796 18.8557V47Z" fill="#0063FE"/>
</svg>
