<svg width="35" height="35" viewBox="0 0 35 35" fill="none" xmlns="http://www.w3.org/2000/svg">
<path d="M14.5164 5.80655C12.9764 5.80655 11.4995 6.41831 10.4106 7.50725C9.32164 8.59619 8.70988 10.0731 8.70988 11.6131C8.70988 13.1531 9.32164 14.63 10.4106 15.719C11.4995 16.8079 12.9764 17.4197 14.5164 17.4197C16.0564 17.4197 17.5334 16.8079 18.6223 15.719C19.7112 14.63 20.323 13.1531 20.323 11.6131C20.323 10.0731 19.7112 8.59619 18.6223 7.50725C17.5334 6.41831 16.0564 5.80655 14.5164 5.80655ZM24.6779 17.4197C24.5892 17.418 24.5028 17.4477 24.4337 17.5034C24.3647 17.5592 24.3175 17.6374 24.3005 17.7245L24.0247 19.6407C23.5892 19.8294 23.1682 20.0617 22.7908 20.323L20.9908 19.5971C20.8311 19.5971 20.6424 19.5971 20.5408 19.7858L19.0891 22.2972C19.002 22.4569 19.031 22.6456 19.1762 22.7617L20.715 23.9521C20.6571 24.4342 20.6571 24.9215 20.715 25.4037L19.1762 26.594C19.111 26.65 19.0668 26.7265 19.051 26.811C19.0351 26.8955 19.0486 26.9828 19.0891 27.0586L20.5408 29.5699C20.6279 29.7586 20.8166 29.7586 20.9908 29.7586L22.7908 29.0328C23.1682 29.2941 23.5747 29.5409 24.0247 29.7151L24.3005 31.6312C24.3295 31.8054 24.4747 31.9361 24.6779 31.9361H27.5812C27.7409 31.9361 27.9006 31.8054 27.9296 31.6312L28.2054 29.7151C28.6409 29.5264 29.0329 29.2941 29.4248 29.0328L31.2103 29.7586C31.399 29.7586 31.5877 29.7586 31.6894 29.5699L33.141 27.0586C33.1815 26.9828 33.195 26.8955 33.1792 26.811C33.1633 26.7265 33.1191 26.65 33.0539 26.594L31.5006 25.4037C31.5297 25.1569 31.5587 24.9247 31.5587 24.6779C31.5587 24.4311 31.5442 24.1988 31.5006 23.9521L33.0394 22.7617C33.1046 22.7058 33.1488 22.6292 33.1646 22.5448C33.1805 22.4603 33.167 22.373 33.1265 22.2972L31.6748 19.7858C31.5877 19.5971 31.399 19.5971 31.2103 19.5971L29.4248 20.323C29.0329 20.0617 28.6409 19.8149 28.1909 19.6407L27.9151 17.7245C27.9059 17.6418 27.867 17.5653 27.8056 17.5092C27.7441 17.4531 27.6644 17.4213 27.5812 17.4197H24.6779ZM14.5164 20.323C8.10019 20.323 2.90332 22.9214 2.90332 26.1295V29.0328H16.9552C16.3073 27.6723 15.9702 26.1848 15.9681 24.6779C15.971 23.2194 16.2879 21.7787 16.8971 20.4536C16.1278 20.3665 15.3294 20.323 14.5164 20.323ZM26.1296 22.5004C27.3344 22.5004 28.307 23.473 28.307 24.6779C28.307 25.8827 27.3344 26.8553 26.1296 26.8553C24.9102 26.8553 23.9521 25.8827 23.9521 24.6779C23.9521 23.473 24.9247 22.5004 26.1296 22.5004Z" fill="#5B5035"/>
</svg>
