<svg width="16" height="16" viewBox="0 0 16 16" fill="none" xmlns="http://www.w3.org/2000/svg">
<path fill-rule="evenodd" clip-rule="evenodd" d="M6.5 0.5C5.94772 0.5 5.5 0.947715 5.5 1.5V3.5H7.5V2.5H13.5V13.5H7.5C7.5 13.5 7.5 13.0858 7.5 12.5C6.71895 12.5 5.5 12.5 5.5 12.5V14.5C5.5 15.0523 5.94772 15.5 6.5 15.5H14.5C15.0523 15.5 15.5 15.0523 15.5 14.5V1.5C15.5 0.947715 15.0523 0.5 14.5 0.5H6.5Z" fill="#2C2C2C"/>
<path d="M0.5 7.8H10.5M10.5 7.8L7.5 4.8M10.5 7.8L7 10.8" stroke="#2C2C2C" stroke-width="2" stroke-linejoin="round"/>
</svg>
