<svg width="28" height="28" viewBox="0 0 28 28" fill="none" xmlns="http://www.w3.org/2000/svg">
<path fill-rule="evenodd" clip-rule="evenodd" d="M16.2 0C17.1941 0 18 0.805887 18 1.8V5.4H14.4V3.6H3.6V23.4H14.4C14.4 23.4 14.4 22.6544 14.4 21.6C15.8059 21.6 18 21.6 18 21.6V25.2C18 26.1941 17.1941 27 16.2 27H1.8C0.805887 27 0 26.1941 0 25.2V1.8C0 0.805887 0.805887 0 1.8 0H16.2Z" fill="#2C2C2C"/>
<path d="M27 13H9M9 13L14.4 8M9 13L15.3 18" stroke="#2C2C2C" stroke-width="3" stroke-linejoin="round"/>
</svg>
