<svg width="34" height="35" viewBox="0 0 34 35" fill="none" xmlns="http://www.w3.org/2000/svg">
<path d="M16.9953 7.61832C17.3728 7.99574 18.4116 8.37388 18.4116 8.37388C18.4116 8.37388 18.1283 10.4508 16.9953 10.4508C15.8623 10.4508 15.5791 8.37388 15.5791 8.37388C15.5791 8.37388 16.6179 7.99574 16.9953 7.61832Z" fill="#491F92"/>
<path fill-rule="evenodd" clip-rule="evenodd" d="M16.8645 5.15194L16.8588 5.15336L16.8426 5.15619L16.7838 5.16752L16.5643 5.21143C16.3759 5.24966 16.1075 5.30631 15.7868 5.37925C15.1459 5.52512 14.2855 5.73827 13.4216 6.00523C12.5662 6.26935 11.6705 6.59792 10.9758 6.98243C10.6302 7.17362 10.2988 7.39809 10.046 7.66222C9.79467 7.92352 9.55957 8.28961 9.55957 8.74918C9.55957 9.98485 9.90655 10.8898 10.2734 11.4967C10.4539 11.7955 10.6373 12.0186 10.7818 12.1715C10.7879 12.2532 10.8004 12.3438 10.8193 12.4434C10.8908 12.8159 11.07 13.2903 11.4807 13.7513C11.2851 14.5828 11.2801 15.4478 11.4661 16.2815C11.652 17.1152 12.0241 17.8961 12.5545 18.5657C13.0849 19.2353 13.7598 19.7763 14.5288 20.1482C15.2978 20.5201 16.141 20.7133 16.9952 20.7133C17.8494 20.7133 18.6925 20.5201 19.4615 20.1482C20.2305 19.7763 20.9054 19.2353 21.4358 18.5657C21.9662 17.8961 22.3383 17.1152 22.5242 16.2815C22.7102 15.4478 22.7052 14.5828 22.5096 13.7513C22.9196 13.2903 23.0988 12.8166 23.1703 12.4434C23.1892 12.3443 23.2017 12.2537 23.2078 12.1715C23.4009 11.9653 23.5713 11.7391 23.7163 11.4967C24.0838 10.8898 24.43 9.98485 24.43 8.74918C24.43 8.28961 24.1949 7.92352 23.9436 7.66222C23.6908 7.39809 23.3594 7.17362 23.0138 6.98243C22.3191 6.59792 21.4234 6.26935 20.5673 6.00523C19.7871 5.76767 18.9984 5.55887 18.2029 5.37925C17.8715 5.30375 17.5391 5.23293 17.2058 5.16682L17.147 5.15619L17.1308 5.15336L17.1251 5.15194L16.9948 5.12787L16.8645 5.15194ZM16.9948 13.9914C18.5576 13.9914 19.607 13.7889 20.3088 13.5254C20.9029 13.3024 21.2492 13.0361 21.4489 12.8117C21.5211 12.73 21.5796 12.6511 21.6245 12.5751H12.3651C12.41 12.6516 12.4683 12.7305 12.54 12.8117C12.7411 13.0361 13.0867 13.3024 13.6801 13.5254C14.3826 13.7889 15.432 13.9914 16.9948 13.9914ZM22.215 11.1589H11.7746C11.6659 11.0365 11.5689 10.9042 11.4849 10.7638C11.2421 10.3623 10.9786 9.71293 10.9758 8.76405C11 8.71894 11.0311 8.67786 11.0679 8.64226C11.1826 8.52258 11.3766 8.37884 11.662 8.22163C12.2285 7.90794 13.0145 7.61336 13.8401 7.35773C14.586 7.13117 15.34 6.93205 16.1005 6.76079C16.3977 6.69313 16.6959 6.62939 16.9948 6.5696L17.1421 6.59863C17.322 6.63545 17.5797 6.69068 17.8892 6.76079C18.5095 6.9017 19.3316 7.10564 20.1495 7.35844C20.9751 7.61336 21.7611 7.90794 22.3276 8.22163C22.613 8.37884 22.807 8.52258 22.9225 8.64226C22.9862 8.70953 23.0074 8.74918 23.0138 8.76405C23.011 9.71293 22.7476 10.3623 22.504 10.7638C22.4202 10.9042 22.3235 11.0365 22.215 11.1589ZM12.7461 15.0536C12.7461 14.9261 12.7515 14.8 12.7624 14.6754C13.7098 15.1194 15.0666 15.4076 16.9948 15.4076C18.6553 15.4076 19.8903 15.1952 20.8059 14.8517C20.9546 14.7965 21.095 14.7375 21.2272 14.6747C21.2381 14.7998 21.2435 14.9261 21.2435 15.0536C21.2435 16.1804 20.7959 17.2611 19.9991 18.0578C19.2023 18.8546 18.1216 19.3023 16.9948 19.3023C15.868 19.3023 14.7873 18.8546 13.9905 18.0578C13.1937 17.2611 12.7461 16.1804 12.7461 15.0536Z" fill="#491F92"/>
<path d="M8.49805 25.6753H13.4549V26.5576C13.4548 26.7114 13.4047 26.861 13.312 26.9838C13.2194 27.1066 13.0893 27.1958 12.9415 27.2381L11.1712 27.7444C11.0439 27.7808 10.909 27.7808 10.7817 27.7444L9.01143 27.2381C8.86357 27.1958 8.73349 27.1066 8.64087 26.9838C8.54825 26.861 8.49812 26.7114 8.49805 26.5576V25.6753ZM23.8394 24.3476C23.8329 24.3215 23.8179 24.2983 23.7967 24.2818C23.7756 24.2652 23.7495 24.2562 23.7226 24.2562C23.6957 24.2562 23.6696 24.2652 23.6484 24.2818C23.6272 24.2983 23.6122 24.3215 23.6057 24.3476L23.2722 25.4239C23.2649 25.4494 23.2496 25.4718 23.2286 25.4879C23.2075 25.504 23.1818 25.5128 23.1554 25.5132H22.0748C21.9565 25.5132 21.907 25.6725 22.0033 25.7454L22.8771 26.411C22.9196 26.4436 22.938 26.5017 22.9217 26.5541L22.5882 27.6304C22.5513 27.7494 22.6802 27.8478 22.7765 27.7742L23.6503 27.1085C23.6712 27.0929 23.6965 27.0845 23.7226 27.0845C23.7486 27.0845 23.774 27.0929 23.7948 27.1085L24.6686 27.7742C24.7649 27.8478 24.8938 27.7494 24.8577 27.6311L24.5235 26.5548C24.5157 26.5291 24.5158 26.5017 24.5238 26.4761C24.5317 26.4505 24.5471 26.4278 24.5681 26.411L25.4419 25.7454C25.5382 25.6725 25.4886 25.5132 25.3704 25.5132H24.2891C24.2627 25.5129 24.2371 25.5041 24.2161 25.4882C24.195 25.4722 24.1797 25.45 24.1722 25.4246L23.8394 24.3476Z" fill="#491F92"/>
<path fill-rule="evenodd" clip-rule="evenodd" d="M11.9526 20.7185C11.9526 20.7185 4.24902 23.1211 4.24902 26.006V30.6321H29.7413V26.006C29.7413 23.1211 22.0376 20.7185 22.0376 20.7185L17.4512 24.5827C17.3235 24.6901 17.162 24.7491 16.9951 24.7491C16.8283 24.7491 16.6668 24.6901 16.5391 24.5827L11.9526 20.7185ZM22.3393 22.3167L18.3639 25.6661C17.9809 25.9889 17.4961 26.1659 16.9951 26.1659C16.4942 26.1659 16.0094 25.9889 15.6263 25.6661L11.651 22.3167C11.5273 22.3606 11.392 22.4102 11.2452 22.4654C10.5513 22.7253 9.6378 23.0956 8.73282 23.5474C7.8151 24.0056 6.97528 24.5133 6.38471 25.0295C5.74669 25.5868 5.66526 25.9182 5.66526 26.006V29.2159H28.325V26.006C28.325 25.9182 28.2436 25.5868 27.6056 25.0288C27.015 24.5133 26.1752 24.0056 25.2567 23.5474C24.3093 23.0803 23.3351 22.6693 22.3393 22.3167Z" fill="#491F92"/>
</svg>
