<svg width="15" height="15" viewBox="0 0 15 15" fill="none" xmlns="http://www.w3.org/2000/svg">
<path d="M1.17529 2.35085C1.1754 2.13761 1.23351 1.92842 1.3434 1.74568C1.45329 1.56294 1.61083 1.41353 1.79913 1.31347C1.98743 1.21341 2.19941 1.16646 2.41236 1.17764C2.6253 1.18883 2.83119 1.25774 3.00797 1.37699C3.18475 1.49624 3.32576 1.66133 3.4159 1.85458C3.50603 2.04783 3.5419 2.26196 3.51965 2.47404C3.4974 2.68611 3.41788 2.88814 3.28961 3.05848C3.16133 3.22882 2.98913 3.36106 2.79145 3.44102V6.61163H6.61145V3.44102C6.35859 3.33873 6.14917 3.15168 6.0191 2.91193C5.88902 2.67217 5.84638 2.39464 5.89848 2.12689C5.95058 1.85915 6.09419 1.61786 6.30468 1.44438C6.51518 1.2709 6.77945 1.17603 7.05222 1.17603C7.32499 1.17603 7.58927 1.2709 7.79976 1.44438C8.01026 1.61786 8.15386 1.85915 8.20597 2.12689C8.25807 2.39464 8.21543 2.67217 8.08535 2.91193C7.95527 3.15168 7.74586 3.33873 7.49299 3.44102V6.61163H9.40299C9.96953 6.61163 10.3504 6.61045 10.6342 6.57284C10.9051 6.53581 11.0215 6.47293 11.0979 6.39653C11.1743 6.32013 11.2372 6.20377 11.2742 5.93225C11.3118 5.64898 11.313 5.26816 11.313 4.70162V3.44102C11.0601 3.33873 10.8507 3.15168 10.7206 2.91193C10.5906 2.67217 10.5479 2.39464 10.6 2.12689C10.6521 1.85915 10.7957 1.61786 11.0062 1.44438C11.2167 1.2709 11.481 1.17603 11.7538 1.17603C12.0265 1.17603 12.2908 1.2709 12.5013 1.44438C12.7118 1.61786 12.8554 1.85915 12.9075 2.12689C12.9596 2.39464 12.917 2.67217 12.7869 2.91193C12.6568 3.15168 12.4474 3.33873 12.1945 3.44102V4.73218C12.1945 5.25993 12.1945 5.7007 12.1475 6.04979C12.0982 6.41886 11.9888 6.75208 11.7209 7.01948C11.4535 7.28747 11.1202 7.39678 10.7512 7.44615C10.4021 7.49317 9.96189 7.49316 9.43355 7.49316H7.49299V10.6638C7.74586 10.7661 7.95527 10.9531 8.08535 11.1929C8.21543 11.4326 8.25807 11.7102 8.20597 11.9779C8.15386 12.2456 8.01026 12.4869 7.79976 12.6604C7.58927 12.8339 7.32499 12.9288 7.05222 12.9288C6.77945 12.9288 6.51518 12.8339 6.30468 12.6604C6.09419 12.4869 5.95058 12.2456 5.89848 11.9779C5.84638 11.7102 5.88902 11.4326 6.0191 11.1929C6.14917 10.9531 6.35859 10.7661 6.61145 10.6638V7.49316H2.79145V10.6638C3.04431 10.7661 3.25373 10.9531 3.38381 11.1929C3.51389 11.4326 3.55653 11.7102 3.50442 11.9779C3.45232 12.2456 3.30872 12.4869 3.09822 12.6604C2.88773 12.8339 2.62345 12.9288 2.35068 12.9288C2.07791 12.9288 1.81363 12.8339 1.60314 12.6604C1.39265 12.4869 1.24904 12.2456 1.19694 11.9779C1.14483 11.7102 1.18748 11.4326 1.31755 11.1929C1.44763 10.9531 1.65705 10.7661 1.90991 10.6638V3.44102C1.69278 3.35319 1.50684 3.20248 1.37595 3.00824C1.24506 2.814 1.17518 2.58508 1.17529 2.35085Z" fill="#6C6C6C"/>
</svg>
