<svg width="35" height="35" viewBox="0 0 35 35" fill="none" xmlns="http://www.w3.org/2000/svg">
<path d="M17.492 6.55614C18.9944 6.55614 20.4353 7.15298 21.4977 8.21536C22.5601 9.27774 23.1569 10.7186 23.1569 12.2211C23.1569 13.7235 22.5601 15.1644 21.4977 16.2268C20.4353 17.2892 18.9944 17.886 17.492 17.886C15.9896 17.886 14.5487 17.2892 13.4863 16.2268C12.4239 15.1644 11.827 13.7235 11.827 12.2211C11.827 10.7186 12.4239 9.27774 13.4863 8.21536C14.5487 7.15298 15.9896 6.55614 17.492 6.55614ZM17.492 9.38861C16.7408 9.38861 16.0203 9.68703 15.4891 10.2182C14.9579 10.7494 14.6595 11.4699 14.6595 12.2211C14.6595 12.9723 14.9579 13.6927 15.4891 14.2239C16.0203 14.7551 16.7408 15.0535 17.492 15.0535C18.2432 15.0535 18.9637 14.7551 19.4948 14.2239C20.026 13.6927 20.3245 12.9723 20.3245 12.2211C20.3245 11.4699 20.026 10.7494 19.4948 10.2182C18.9637 9.68703 18.2432 9.38861 17.492 9.38861ZM17.492 19.3022C21.2733 19.3022 28.8219 21.1858 28.8219 24.9672V29.2159H6.16211V24.9672C6.16211 21.1858 13.7106 19.3022 17.492 19.3022ZM17.492 21.9931C13.2858 21.9931 8.85296 24.0608 8.85296 24.9672V26.525H26.131V24.9672C26.131 24.0608 21.6982 21.9931 17.492 21.9931Z" fill="#536C46"/>
</svg>
