<svg width="17" height="17" viewBox="0 0 17 17" fill="none" xmlns="http://www.w3.org/2000/svg">
<path d="M8.29684 14.5195C9.11401 14.5195 9.92317 14.3585 10.6781 14.0458C11.4331 13.7331 12.1191 13.2747 12.6969 12.6969C13.2747 12.1191 13.7331 11.4331 14.0458 10.6781C14.3585 9.92317 14.5195 9.11401 14.5195 8.29684C14.5195 7.47967 14.3585 6.67051 14.0458 5.91554C13.7331 5.16058 13.2747 4.4746 12.6969 3.89678C12.1191 3.31895 11.4331 2.8606 10.6781 2.54788C9.92317 2.23517 9.11401 2.07421 8.29684 2.07421C6.6465 2.07421 5.06375 2.72981 3.89678 3.89678C2.72981 5.06375 2.07421 6.6465 2.07421 8.29684C2.07421 9.94719 2.72981 11.5299 3.89678 12.6969C5.06375 13.8639 6.6465 14.5195 8.29684 14.5195ZM15.9023 8.29684C15.9023 12.4971 12.4971 15.9023 8.29684 15.9023C4.09657 15.9023 0.691406 12.4971 0.691406 8.29684C0.691406 4.09657 4.09657 0.691406 8.29684 0.691406C12.4971 0.691406 15.9023 4.09657 15.9023 8.29684ZM10.3711 11.3487L7.60544 8.58308V3.80272H8.98825V8.0106L11.3487 10.3711L10.3711 11.3487Z" fill="#6C6C6C"/>
</svg>
